<svg xmlns="http://www.w3.org/2000/svg" viewBox="0 0 257.69 198.14"><defs><style>.cls-1{isolation:isolate;}.cls-2{fill:#2b2d39;}.cls-3{fill:#4169e1;}.cls-4{fill:none;stroke:#fff;stroke-miterlimit:10;stroke-width:8.55px;mix-blend-mode:overlay;opacity:0.23;}</style></defs><g class="cls-1"><g id="Layer_2" data-name="Layer 2"><g id="OBJECTS"><path class="cls-2" d="M0,182.94c0,9.69,7.85,15.2,17.54,15.2H83.1v-1.61a7.16,7.16,0,0,1,7.15-7.16h36.47a7.17,7.17,0,0,1,7.16,7.16v1.61h65.55c9.69,0,17.54-5.51,17.54-15.2Z"/><path class="cls-2" d="M201.59,131.11h-4.93V152a8.07,8.07,0,0,1-8.07,8.07H28.38A8.07,8.07,0,0,1,20.31,152V59.23a8.07,8.07,0,0,1,8.07-8.07H129.66a9.2,9.2,0,0,1,.11-5.32l1.87-5.76H27.51A18.27,18.27,0,0,0,9.23,58.36v94.55a18.27,18.27,0,0,0,18.28,18.28h162a18.27,18.27,0,0,0,18.27-18.28V128.74A9.18,9.18,0,0,1,201.59,131.11Z"/><path class="cls-3" d="M254.67,71.59l-6.4-2.08a4.33,4.33,0,0,1-3-4.37c.06-.91.08-1.83.08-2.75s0-1.84-.08-2.75a4.35,4.35,0,0,1,3-4.38l6.4-2.08a4.37,4.37,0,0,0,2.81-5.5l-3-9.14A4.38,4.38,0,0,0,249,35.73l-6.4,2.08a4.34,4.34,0,0,1-5-1.75,49.08,49.08,0,0,0-3.26-4.47,4.37,4.37,0,0,1-.13-5.3l4-5.45a4.37,4.37,0,0,0-1-6.1l-7.78-5.65a4.36,4.36,0,0,0-6.1,1l-4,5.43A4.35,4.35,0,0,1,214.31,17a47.48,47.48,0,0,0-5.26-1.71,4.34,4.34,0,0,1-3.22-4.21V4.37A4.37,4.37,0,0,0,201.46,0h-9.61a4.37,4.37,0,0,0-4.37,4.37v6.72a4.34,4.34,0,0,1-3.21,4.21A46.16,46.16,0,0,0,179,17a4.34,4.34,0,0,1-5.08-1.52l-4-5.43a4.37,4.37,0,0,0-6.11-1l-7.77,5.65a4.37,4.37,0,0,0-1,6.1l4,5.45a4.34,4.34,0,0,1-.13,5.3,49,49,0,0,0-3.25,4.47,4.35,4.35,0,0,1-5,1.75l-6.4-2.08a4.37,4.37,0,0,0-5.5,2.81l-3,9.14a4.36,4.36,0,0,0,2.8,5.5l6.4,2.08a4.35,4.35,0,0,1,3,4.38c-.05.91-.08,1.82-.08,2.75s0,1.84.08,2.75a4.33,4.33,0,0,1-3,4.37l-6.4,2.08a4.37,4.37,0,0,0-2.8,5.51l3,9.14a4.36,4.36,0,0,0,5.5,2.8l6.4-2.08a4.36,4.36,0,0,1,5,1.75A46.36,46.36,0,0,0,159,93.18a4.34,4.34,0,0,1,.13,5.3l-4,5.45a4.38,4.38,0,0,0,1,6.11l7.77,5.64a4.38,4.38,0,0,0,6.11-1l4-5.44a4.34,4.34,0,0,1,5.08-1.51,48.9,48.9,0,0,0,5.26,1.7,4.34,4.34,0,0,1,3.21,4.21v6.73a4.37,4.37,0,0,0,4.37,4.36h9.61a4.36,4.36,0,0,0,4.37-4.36v-6.73a4.34,4.34,0,0,1,3.22-4.21,49.63,49.63,0,0,0,5.26-1.7,4.34,4.34,0,0,1,5.08,1.51l4,5.44a4.37,4.37,0,0,0,6.1,1l7.78-5.64a4.38,4.38,0,0,0,1-6.11l-4-5.45a4.37,4.37,0,0,1,.13-5.3,46.45,46.45,0,0,0,3.26-4.47,4.35,4.35,0,0,1,5-1.75L249,89a4.37,4.37,0,0,0,5.51-2.8l3-9.14A4.38,4.38,0,0,0,254.67,71.59Zm-58,23.58a32.79,32.79,0,1,1,32.78-32.78A32.79,32.79,0,0,1,196.66,95.17Z"/><path class="cls-3" d="M132.61,120l-2.66-.87a1.79,1.79,0,0,1-1.25-1.81c0-.38,0-.76,0-1.15s0-.76,0-1.14a1.8,1.8,0,0,1,1.25-1.82l2.66-.87a1.81,1.81,0,0,0,1.17-2.29l-1.23-3.8a1.82,1.82,0,0,0-2.29-1.16l-2.66.86a1.81,1.81,0,0,1-2.08-.73,22.1,22.1,0,0,0-1.36-1.86,1.8,1.8,0,0,1,0-2.2l1.65-2.27a1.81,1.81,0,0,0-.41-2.54L122.12,94a1.81,1.81,0,0,0-2.54.4l-1.64,2.26a1.8,1.8,0,0,1-2.11.63,18.06,18.06,0,0,0-2.19-.71,1.81,1.81,0,0,1-1.34-1.75V92a1.82,1.82,0,0,0-1.82-1.82h-4A1.82,1.82,0,0,0,104.67,92v2.8a1.81,1.81,0,0,1-1.34,1.75,19.27,19.27,0,0,0-2.19.71A1.8,1.8,0,0,1,99,96.67l-1.64-2.26a1.81,1.81,0,0,0-2.54-.4l-3.23,2.34a1.82,1.82,0,0,0-.4,2.54l1.64,2.27a1.8,1.8,0,0,1,0,2.2,22.1,22.1,0,0,0-1.36,1.86,1.8,1.8,0,0,1-2.07.73l-2.66-.86a1.82,1.82,0,0,0-2.29,1.16l-1.24,3.8a1.81,1.81,0,0,0,1.17,2.29l2.66.87A1.8,1.8,0,0,1,88.27,115q0,.57,0,1.14c0,.39,0,.77,0,1.15A1.79,1.79,0,0,1,87,119.13l-2.66.87a1.81,1.81,0,0,0-1.17,2.29l1.24,3.8a1.81,1.81,0,0,0,2.29,1.17l2.66-.87a1.8,1.8,0,0,1,2.07.73A19.27,19.27,0,0,0,92.81,129a1.8,1.8,0,0,1,0,2.2l-1.64,2.27a1.82,1.82,0,0,0,.4,2.54l3.23,2.35a1.82,1.82,0,0,0,2.54-.4L99,135.67a1.82,1.82,0,0,1,2.11-.63,19.27,19.27,0,0,0,2.19.71,1.82,1.82,0,0,1,1.34,1.76v2.79a1.81,1.81,0,0,0,1.82,1.82h4a1.81,1.81,0,0,0,1.82-1.82v-2.79a1.82,1.82,0,0,1,1.34-1.76,18.06,18.06,0,0,0,2.19-.71,1.82,1.82,0,0,1,2.11.63l1.64,2.27a1.82,1.82,0,0,0,2.54.4l3.23-2.35a1.81,1.81,0,0,0,.41-2.54l-1.65-2.27a1.8,1.8,0,0,1,0-2.2,19.27,19.27,0,0,0,1.36-1.86,1.81,1.81,0,0,1,2.08-.73l2.66.87a1.82,1.82,0,0,0,2.29-1.17l1.23-3.8A1.81,1.81,0,0,0,132.61,120Zm-24.12,9.81a13.64,13.64,0,1,1,13.63-13.64A13.64,13.64,0,0,1,108.49,129.81Z"/><path class="cls-3" d="M65.76,96.56l-.85-1.66a1.19,1.19,0,0,1,.27-1.44c.19-.17.37-.35.55-.53s.36-.36.53-.55a1.19,1.19,0,0,1,1.44-.27l1.66.85A1.22,1.22,0,0,0,71,92.43l1.21-2.37a1.21,1.21,0,0,0-.53-1.63L70,87.58a1.2,1.2,0,0,1-.63-1.32c.1-.5.18-1,.23-1.51a1.21,1.21,0,0,1,1-1.06l1.84-.3a1.2,1.2,0,0,0,1-1.38l-.41-2.63a1.22,1.22,0,0,0-1.39-1l-1.84.3a1.22,1.22,0,0,1-1.29-.7,12.54,12.54,0,0,0-.69-1.37A1.2,1.2,0,0,1,68,75.15l1.32-1.32a1.21,1.21,0,0,0,0-1.71l-1.88-1.88a1.23,1.23,0,0,0-1.72,0l-1.31,1.32a1.21,1.21,0,0,1-1.46.19,14.56,14.56,0,0,0-1.36-.7,1.21,1.21,0,0,1-.7-1.29l.29-1.84a1.2,1.2,0,0,0-1-1.38l-2.63-.42a1.22,1.22,0,0,0-1.39,1L55.91,69a1.19,1.19,0,0,1-1.06,1,12.82,12.82,0,0,0-1.51.24A1.21,1.21,0,0,1,52,69.59l-.84-1.66a1.2,1.2,0,0,0-1.63-.53l-2.37,1.21a1.2,1.2,0,0,0-.53,1.62l.85,1.67a1.21,1.21,0,0,1-.27,1.44l-.56.52c-.18.18-.35.37-.52.56a1.21,1.21,0,0,1-1.44.27L43,73.84a1.21,1.21,0,0,0-1.63.53L40.2,76.74a1.21,1.21,0,0,0,.53,1.63l1.66.84A1.2,1.2,0,0,1,43,80.53c-.1.5-.18,1-.23,1.52a1.21,1.21,0,0,1-1,1.06l-1.84.29a1.21,1.21,0,0,0-1,1.39l.41,2.63a1.21,1.21,0,0,0,1.39,1l1.83-.29a1.22,1.22,0,0,1,1.3.7,12.4,12.4,0,0,0,.69,1.36,1.21,1.21,0,0,1-.19,1.46L43,93a1.23,1.23,0,0,0,0,1.72l1.88,1.88a1.21,1.21,0,0,0,1.71,0L48,95.24a1.21,1.21,0,0,1,1.46-.19,11.57,11.57,0,0,0,1.36.69,1.21,1.21,0,0,1,.7,1.29l-.29,1.84a1.21,1.21,0,0,0,1,1.39l2.63.41a1.21,1.21,0,0,0,1.39-1l.29-1.85a1.21,1.21,0,0,1,1.06-1,12.82,12.82,0,0,0,1.51-.24,1.2,1.2,0,0,1,1.32.64l.85,1.66a1.22,1.22,0,0,0,1.63.53l2.37-1.21A1.21,1.21,0,0,0,65.76,96.56Zm-16-6.74a9.08,9.08,0,1,1,12.84,0A9.07,9.07,0,0,1,49.78,89.82Z"/><circle class="cls-3" cx="196.66" cy="62.39" r="21.01" transform="translate(13.49 157.33) rotate(-45)"/><circle class="cls-4" cx="196.66" cy="62.39" r="40.95"/></g></g></g></svg>