<svg xmlns="http://www.w3.org/2000/svg" viewBox="0 0 409.81 339.55"><defs><style>.cls-1{fill:#4183e1;}.cls-2{fill:#4169e1;}</style></defs><g id="Layer_2" data-name="Layer 2"><g id="Elements"><path class="cls-1" d="M128.8,72.61C110.06,104.73,49.61,114.5,28.56,131,9.29,146.06-1,180.94.07,208.74S22.23,264.19,50,266.51c12.06,1,24.13-2.56,36.21-1.73,38.65,2.63,60.18,46,94.17,64.58,39.17,21.43,89.1,6.28,125.34-19.8,23.05-16.58,43.79-38.58,51.13-66s-2.18-60.64-27.17-74.11c-22.52-12.14-56.82-10.36-65.59-34.39-6.14-16.8,5.83-34.37,8.52-52.05,4.21-27.71-16.87-55.29-43.58-63.76s-51.2-9.94-70.89,10C148.91,38.57,135.39,61.31,128.8,72.61Z"/><path class="cls-2" d="M251.76,215.72c2.85-6.48,10.63-5,13.81-.29,1.42,2.11.94,4.67,0,6.88a6.46,6.46,0,0,1-2.24,3"/><path class="cls-2" d="M233.88,164.93c3.3-.22,5.45,1.42,6.85,4.47a6.79,6.79,0,0,1-1.06,7.82"/><path class="cls-2" d="M249.46,205.3c-1.73-3.94-.36-7.6,3.71-9.52s7.8-.59,9.79,3.65.49,7.68-3.76,9.78a6.7,6.7,0,0,1-5.4.38"/><path class="cls-2" d="M246.59,188.83c-1.83-3.93-.43-7.6,3.64-9.52s7.82-.62,9.81,3.61.54,7.76-3.73,9.76c-4.09,1.91-7.7.48-9.72-3.85"/><path class="cls-2" d="M225.44,159.41a7.32,7.32,0,1,1,9.51,3.53"/><path class="cls-2" d="M268.35,219.47a7.29,7.29,0,0,1,3.59-9.8,7.2,7.2,0,0,1,9.74,3.7,7.08,7.08,0,0,1-3.48,9.54A7.24,7.24,0,0,1,268.35,219.47Z"/><path class="cls-2" d="M209.58,136a7.2,7.2,0,0,1,9.74,3.71,7.07,7.07,0,0,1-3.47,9.54"/><path class="cls-2" d="M253.75,176.84a7.35,7.35,0,1,1-5.82-13.49,7.35,7.35,0,0,1,5.82,13.49Z"/><path class="cls-2" d="M281,239.46a7.29,7.29,0,0,1-9.8-3.59,7.2,7.2,0,0,1,3.7-9.74,7.08,7.08,0,0,1,9.54,3.48A7.24,7.24,0,0,1,281,239.46Z"/><path class="cls-2" d="M274.09,252.17c-1.62-4.06-.14-7.59,3.59-9.48A7.32,7.32,0,1,1,283.76,256a7.09,7.09,0,0,1-9.67-3.84"/><path class="cls-2" d="M279.52,258.87a7.33,7.33,0,1,1,6.27,13.24"/><path class="cls-2" d="M138,113.74c3.17-1.52,8.23.14,9.75,3.21"/><path class="cls-2" d="M278.75,196.79c1.54,3.31-.37,8.27-3.77,9.81-3.13,1.41-8.1-.51-9.57-3.69s.37-8.28,3.78-9.81C272.31,191.69,277.28,193.6,278.75,196.79Z"/><path class="cls-2" d="M282.18,275.44c3.37-1.68,8.43-.07,10,3.2s0,8.24-3.11,9.77"/><path class="cls-2" d="M151.2,120.82c-1.67-3.06.07-8.34,3.29-10,3-1.53,8.08.14,9.74,3.2s-.07,8.35-3.29,10"/><path class="cls-2" d="M232.28,146.38c-3.07,1.48-8.07-.22-9.71-3.31s.17-8.39,3.4-9.94c3.07-1.48,8.07.22,9.7,3.3S235.51,144.83,232.28,146.38Z"/><path class="cls-2" d="M276.8,180.6c1.51,3.26-.47,8.5-3.7,9.84s-8.17-.53-9.6-3.62c-1.5-3.25.47-8.49,3.71-9.84S275.37,177.51,276.8,180.6Z"/><path class="cls-2" d="M254.49,150.52c1.53,3.24-.43,8.49-3.67,9.85s-8.15-.5-9.61-3.59c-1.53-3.24.44-8.5,3.68-9.85S253,147.42,254.49,150.52Z"/><path class="cls-2" d="M203.35,123.33c1-1.38,2-3.23,3.37-3.66a7.71,7.71,0,0,1,5.71,0c1.7.83,2.7,2.4,4,3.6-.33,1.9.86,4-.36,5.74-1,1.39-2.17,2.59-3.22,3.84"/><path class="cls-2" d="M264.51,161.21c4.07-1.91,6.81-.86,8.79,3.36,1.88,4,.79,6.76-3.48,8.75-3.82,1.78-6.68.68-8.55-3.27S260.39,163.15,264.51,161.21Z"/><path class="cls-2" d="M288.25,232.4c-1.81-3.89-.62-6.65,3.73-8.66,3.76-1.73,6.54-.57,8.46,3.52S301.22,234,297,236C293,237.84,290.24,236.69,288.25,232.4Z"/><path class="cls-2" d="M297.5,210.72c1.9,4.05.84,6.79-3.4,8.77-4,1.86-6.74.75-8.73-3.52-1.77-3.8-.66-6.66,3.31-8.53S295.55,206.56,297.5,210.72Z"/><path class="cls-2" d="M168.55,118c-1.87-4-.91-6.88,2.87-8.69,4.25-2,7.09-1.13,9,2.84,2,4.23,1.09,7-3,8.93"/><path class="cls-2" d="M302.56,243.81c1.95,4.12.95,7-3.12,8.88s-6.89.88-8.83-3.24c-1.87-4-.88-6.77,3-8.63C297.85,238.81,300.63,239.75,302.56,243.81Z"/><path class="cls-2" d="M286.3,191.67c1.45-1.86,3.49-.9,4.94-.49a6.91,6.91,0,0,1,3.85,3.79,6.21,6.21,0,0,1,.19,5.08,6.75,6.75,0,0,1-3.86,3.81,6.91,6.91,0,0,1-5.07.12,7,7,0,0,1-3.61-3.57,6.29,6.29,0,0,1-.32-5.07C283,193.75,283.91,191.74,286.3,191.67Z"/><path class="cls-2" d="M297,257.26c1.44-1.86,3.49-.9,4.94-.48a6.83,6.83,0,0,1,3.84,3.79,6.27,6.27,0,0,1,.19,5.07,6.73,6.73,0,0,1-3.86,3.81,6.86,6.86,0,0,1-5.07.12,7,7,0,0,1-3.61-3.57,6.29,6.29,0,0,1-.32-5.07C293.62,259.34,294.57,257.33,297,257.26Z"/><path class="cls-2" d="M99.56,107.08c.55-1.58,1.49-3.59,3.88-3.66,1.45-1.87,3.49-.9,4.94-.49a6.91,6.91,0,0,1,3.85,3.79,6.29,6.29,0,0,1,.19,5.08"/><path class="cls-2" d="M250.8,134.36c1.72,1.61,1.06,3.72.53,5.31a6.83,6.83,0,0,1-3.56,3.62,6.66,6.66,0,0,1-5.08.36,7.27,7.27,0,0,1-3.91-3.74A6.56,6.56,0,0,1,242,131.1a7.11,7.11,0,0,1,5-.48C248.58,131.24,250.68,132,250.8,134.36Z"/><path class="cls-2" d="M184.83,114.8c-1.33-1.86-.2-3.39.16-5.11.4-1.91,1.72-2.61,3.24-3.49,1.83-1,3.36-.71,5.1,0,2.54,1,2.56,1,3.85,3.7,1.43,1.43.33,3.06-.1,4.8-.49,2-1.89,2.76-3.46,3.75"/><path class="cls-2" d="M292,178.42a6.61,6.61,0,1,1-12.14,5.24,6.83,6.83,0,0,1,3.32-8.53A6.73,6.73,0,0,1,292,178.42Z"/><path class="cls-2" d="M128.41,103.48a6.61,6.61,0,1,1-9-2.9A6.75,6.75,0,0,1,128.41,103.48Z"/><path class="cls-2" d="M232.21,120.49a6.61,6.61,0,1,1-12.07,5.39,6.84,6.84,0,0,1,3.22-8.57A6.76,6.76,0,0,1,232.21,120.49Z"/><path class="cls-2" d="M141.81,109.51a6.61,6.61,0,1,1,3.11-8.88A6.75,6.75,0,0,1,141.81,109.51Z"/><path class="cls-2" d="M270.31,147.92a6.61,6.61,0,1,1-8.88-3.12A6.74,6.74,0,0,1,270.31,147.92Z"/><path class="cls-2" d="M212.84,107a6.61,6.61,0,1,1-12.11,5.31,6.85,6.85,0,0,1,3.27-8.55A6.77,6.77,0,0,1,212.84,107Z"/><path class="cls-2" d="M157.94,107.58a6.61,6.61,0,1,1,3.12-8.88A6.74,6.74,0,0,1,157.94,107.58Z"/><path class="cls-2" d="M308.12,276.25a6.61,6.61,0,1,1-12.07,5.38,6.61,6.61,0,0,1,12.07-5.38Z"/><path class="cls-2" d="M289.76,161.62a6.61,6.61,0,1,1-12.14,5.24,6.83,6.83,0,0,1,3.33-8.53A6.71,6.71,0,0,1,289.76,161.62Z"/><path class="cls-2" d="M267.32,131.22c1.55,3.52-.07,7.76-3.23,9.09s-7.61-.24-8.68-3.5a6.54,6.54,0,0,1,8.27-8.7C265.5,128.74,266.34,130.23,267.32,131.22Z"/><path class="cls-2" d="M298.73,293.71c.52-2,2.15-2.92,3.4-4.29,1.74-.1,3.38-.88,5.13,0a10.66,10.66,0,0,1,3.78,3.36,6.92,6.92,0,0,1-3,8.65"/><path class="cls-2" d="M312.93,233.34c-2.71,1.18-7.7-.74-8.78-3.37s.88-7.73,3.49-8.75,7.38.81,8.54,3.29C317.43,227.16,315.58,232.18,312.93,233.34Z"/><path class="cls-2" d="M313.86,207.54c1.35,2.53-.36,7.59-3,8.92-2.43,1.22-7.27-.33-8.72-2.8s.17-7.56,2.76-9S312.47,204.94,313.86,207.54Z"/><path class="cls-2" d="M177.54,95.78c1.31,2.57-.45,7.62-3.09,8.89-2.49,1.19-7.3-.41-8.69-2.88s.24-7.57,2.85-9S176.19,93.16,177.54,95.78Z"/><path class="cls-2" d="M245.43,126.38c-2.71,1.18-7.7-.74-8.78-3.37s.87-7.72,3.49-8.74,7.38.8,8.54,3.28C249.93,120.2,248.08,125.23,245.43,126.38Z"/><path class="cls-2" d="M310.18,237.81c1.63-.05,3.47-.55,4.95,0a7.1,7.1,0,0,1,3.78,3.19,7,7,0,0,1,.19,4.94,7.34,7.34,0,0,1-3.24,3.75,6.4,6.4,0,0,1-4.6.24,7.37,7.37,0,0,1-3.88-3.1,7,7,0,0,1-.32-4.93C307.53,240.37,309.05,239.2,310.18,237.81Z"/><path class="cls-2" d="M283.62,153.92c-1.75,0-3.61.42-5.08-.15a6.15,6.15,0,0,1-3.62-8.3,7,7,0,0,1,3.4-3.59,7.3,7.3,0,0,1,5,.08,6.29,6.29,0,0,1,3.39,3.12,7.38,7.38,0,0,1,.12,4.95C286.26,151.51,284.72,152.64,283.62,153.92Z"/><path class="cls-2" d="M308.23,200.77c-1.73,0-3.58.45-5.05-.1a7.1,7.1,0,0,1-3.69-3.3,7,7,0,0,1-.06-4.94,7.35,7.35,0,0,1,3.34-3.66,6.37,6.37,0,0,1,4.61-.11,7.4,7.4,0,0,1,3.79,3.2,7.16,7.16,0,0,1,.2,4.94C310.86,198.29,309.34,199.44,308.23,200.77Z"/><path class="cls-2" d="M229.39,104c0,1.71.44,3.57-.13,5A6.13,6.13,0,0,1,221,112.7a7.35,7.35,0,0,1-3.63-3.37,6.37,6.37,0,0,1-.07-4.61,6.89,6.89,0,0,1,3.23-3.74c1.4-.56,3.41-1.08,4.95-.24A25.63,25.63,0,0,1,229.39,104Z"/><path class="cls-2" d="M190.29,101.19c-1.27,1.22-2.68.65-4.27.29-2-.46-2.53-2-3.39-3.41s-.55-2.84-.2-4.44c.46-2.1,2.06-2.46,3.47-3.33s2.87-.58,4.45-.11c1.75.52,2.4,1.73,3.14,3.16a5.4,5.4,0,0,1,.33,4.45A4.81,4.81,0,0,1,190.29,101.19Z"/><path class="cls-2" d="M264.23,116.23c1.22,1.27.65,2.68.29,4.28-.46,2-1.95,2.53-3.4,3.39s-2.85.55-4.45.2c-2.1-.46-2.46-2.06-3.33-3.47s-.58-2.87-.11-4.45c.53-1.75,1.73-2.4,3.16-3.14a5.4,5.4,0,0,1,4.45-.33A4.8,4.8,0,0,1,264.23,116.23Z"/><path class="cls-2" d="M301.75,167.12c-1.27,1.22-2.68.65-4.28.29-2-.46-2.52-2-3.38-3.41s-.55-2.84-.2-4.44c.46-2.1,2.06-2.46,3.47-3.34s2.87-.57,4.45-.1c1.75.52,2.4,1.73,3.14,3.16a5.4,5.4,0,0,1,.33,4.45A4.81,4.81,0,0,1,301.75,167.12Z"/><path class="cls-2" d="M299.93,173a4.4,4.4,0,0,1,4.42-.53,5.44,5.44,0,0,1,3.5,3.28,5.63,5.63,0,0,1,.35,4.45c-.59,1.88-1.8,2.64-3.35,3.45a5.64,5.64,0,0,1-7.7-2.79c-.72-1.62-1.12-3-.34-4.79C297.49,174.5,298.22,173.31,299.93,173Z"/><path class="cls-2" d="M313.48,255.07a4.4,4.4,0,0,1,4.42-.53,5.44,5.44,0,0,1,3.51,3.28,5.68,5.68,0,0,1,.34,4.45c-.58,1.88-1.79,2.64-3.34,3.45a5.64,5.64,0,0,1-7.7-2.79c-.73-1.62-1.13-3-.35-4.79C311,256.58,311.78,255.39,313.48,255.07Z"/><path class="cls-2" d="M68.21,93.09a5.62,5.62,0,0,1,7.9,2.77"/><path class="cls-2" d="M275.72,126.7a5.61,5.61,0,0,1,7.86,2.89c1.48,3.2.28,6.32-3,7.81a5.87,5.87,0,0,1-4.85-10.7Z"/><path class="cls-2" d="M321.09,281.44a5.62,5.62,0,0,1-7.84-2.93c-1.46-3.19-.24-6.3,3.05-7.8a5.88,5.88,0,0,1,4.79,10.73Z"/><path class="cls-2" d="M242.75,109.79c-3.21,1.56-6.25.39-8-2.66-1.4-2.48-.13-6.6,2.51-7.79,3.31-1.49,6.53-.59,8,2.47C246.91,105.07,245.89,108.26,242.75,109.79Z"/><path class="cls-2" d="M158.23,82.39c1.48,3.2.27,6.31-3,7.81s-6.28.17-7.77-3.13a5.88,5.88,0,0,1,10.78-4.68Z"/><path class="cls-2" d="M138.82,93.07c-3.2,1.47-6.32.27-7.82-3s-.17-6.28,3.14-7.77a5.88,5.88,0,0,1,4.68,10.78Z"/><path class="cls-2" d="M299.82,150.24a5.62,5.62,0,0,1-7.86-2.89c-1.48-3.2-.27-6.32,3-7.81a5.87,5.87,0,0,1,4.85,10.7Z"/><path class="cls-2" d="M124.91,87.45A5.62,5.62,0,0,1,122,95.31c-3.2,1.48-6.32.27-7.82-3a5.88,5.88,0,0,1,10.71-4.85Z"/><path class="cls-2" d="M210,90.52c1.45,3.17.21,6.29-3.09,7.78-3.11,1.41-6.17.06-7.77-3.19-1.29-2.59.34-6.58,3-7.61C205.38,86.24,208.47,87.27,210,90.52Z"/><path class="cls-2" d="M105.72,98.13a5.88,5.88,0,0,1-5.39-10.45c3.25-1.6,6.49-.6,8,2.49S108.87,96.6,105.72,98.13Z"/><path class="cls-2" d="M81.94,97.88c-1.48-3.19-.28-6.31,3-7.81a5.87,5.87,0,0,1,4.85,10.7"/><path class="cls-2" d="M318.75,211a6.28,6.28,0,0,1,3.26-8c2.41-1.05,6.1.71,7.54,3.13a4.82,4.82,0,0,1,0,4.38,5.91,5.91,0,0,1-3.12,3.55c-1.66.71-3-.44-4.45,0C321,212.85,318.66,213,318.75,211Z"/><path class="cls-2" d="M326.1,290.27a6.22,6.22,0,0,1-2.69,7.93c-2.63,1.26-6.32-.09-7.78-2.44a5.22,5.22,0,0,1-.26-4.7c.44-1.15,1-2.76,2.73-3.42C320.93,286.55,324.83,287.64,326.1,290.27Z"/><path class="cls-2" d="M226.3,88.48c0,1.6.34,3.34-.2,4.71a6.24,6.24,0,0,1-3.06,3,5.52,5.52,0,0,1-4.28.2c-1.27-.69-3.07-1.45-3.41-3.19-.29-1.43-.68-3.22-.07-4.32a7,7,0,0,1,2.89-3.28c1.59-.76,3.29-.38,4.72-.08C224.13,85.82,225.09,87.38,226.3,88.48Z"/><path class="cls-2" d="M332.2,221.86c0,1.59.59,3.32,0,4.46-.68,1.29-1.47,3-3.17,3.43-1.41.32-3.22.73-4.31.13-1.27-.7-3.06-1.48-3.4-3.22-.28-1.42-.65-3.19-.05-4.32a6.85,6.85,0,0,1,2.91-3.26,7.28,7.28,0,0,1,4.72-.06C330.13,219.3,331.09,220.85,332.2,221.86Z"/><path class="cls-2" d="M327.44,189.31c0,1.61.34,3.34-.2,4.71a6.18,6.18,0,0,1-3.07,3,5.55,5.55,0,0,1-4.27.21c-1.28-.7-3.07-1.46-3.42-3.2-.28-1.43-.68-3.22-.07-4.32a5.64,5.64,0,0,1,7.61-3.36C325.26,186.65,326.23,188.22,327.44,189.31Z"/><path class="cls-2" d="M171.35,87.76c-1.69,0-3.58.54-4.76-.15s-2.87-1.32-3.19-3c-.28-1.43-.66-3.07-.22-4.35A8.53,8.53,0,0,1,166,77c1.39-1.12,3.25-.55,4.67-.27a5.53,5.53,0,0,1,3.16,2.89,6.24,6.24,0,0,1,.43,4.3C173.82,85.35,172.42,86.44,171.35,87.76Z"/><path class="cls-2" d="M251.26,104.1c-1.06-2.35.63-6.85,3-7.84s6.94.73,7.77,3.08a7.1,7.1,0,0,1-2.84,7.59C257.06,108.08,252.13,106.33,251.26,104.1Z"/><path class="cls-2" d="M324.21,172.7c1.16,1.79-.33,6.8-2.74,7.91-2.14,1-6.53-.43-7.71-2.53s.22-6.77,2.5-8S323,170.41,324.21,172.7Z"/><path class="cls-2" d="M324.24,243.32c-1-2.35.71-6.86,3-7.81s6.86.81,7.77,3.13-.8,6.53-2.93,7.58C329.8,247.36,324.94,245.41,324.24,243.32Z"/><path class="cls-2" d="M277.88,120.81c-2,1.17-6.92-.54-7.89-2.8-.89-2.06.19-6.2,2.62-7.67,2.13-1.3,6.76.26,8,2.54S280.19,119.67,277.88,120.81Z"/><path class="cls-2" d="M300,126.78c-.07,1.43.42,3-.27,4.61-.6,1.39-2,1.88-2.66,3.08-1.69-.21-3.52.66-5.07-.55-1-.76-2.49-1.6-2.57-2.52-.13-1.38-.57-2.85.1-4.43.6-1.42,1.87-2,2.68-3.08.35-.46,1.73-.28,2.6-.39a6,6,0,0,1,3.38,1.14C299,125.07,299.39,126,300,126.78Z"/><path class="cls-2" d="M187.73,84.68c-1.81-.23-3.64.68-5.19-.55-1-.76-2.43-1.54-2.61-2.51-.3-1.6-.72-3.51.47-5,.75-1,1.6-2.43,2.55-2.56,1.49-.19,3.12-.53,4.77.3,1.24.63,1.49,2.1,2.78,2.49-.12,1.58.4,3.1-.24,4.76C189.7,83,188.09,83.32,187.73,84.68Z"/><path class="cls-2" d="M318.62,164.16c-1.16,0-2.4.11-3.63.06-2-.07-3.06-1.67-4.14-2.91-.59-.68-.36-2.17-.29-3.28.13-1.88,1.49-3.19,2.74-4.29.7-.62,2.16-.53,3.27-.49,2,.08,3.46,1.53,4.57,2.92.64.79.35,2.38.33,3.61C321.42,161.74,319.58,162.61,318.62,164.16Z"/><path class="cls-2" d="M330.91,252.45c1.48-1.49,3.29-.5,4.76.39.88.54,1.17,2,1.81,3a3.51,3.51,0,0,1,.2,3.4,3.48,3.48,0,0,1-2.32,2.49,5.22,5.22,0,0,0-1.65.78c-1,.8-2,.37-3.06,0s-2-.67-2.35-1.95a5.4,5.4,0,0,0-.77-1.65,3.46,3.46,0,0,1-.21-3.4,3.4,3.4,0,0,1,2.33-2.48A9.51,9.51,0,0,0,330.91,252.45Z"/><path class="cls-2" d="M235.11,83.36c3.29-1.55,5.18-.82,6.79,2.6s.82,5.18-2.6,6.79-5.19.82-6.79-2.6S231.69,85,235.11,83.36Z"/><path class="cls-2" d="M318.12,140.85q2.16,4.64-2.53,6.82t-6.81-2.53q-2.16-4.63,2.52-6.81T318.12,140.85Z"/><path class="cls-2" d="M339.39,272c1.62,2.4.1,5.75-2.41,6.93a5.24,5.24,0,0,1-4.47-9.47C335.09,268.23,338.62,269.3,339.39,272Z"/><path class="cls-2" d="M204.19,81.71c-3.13,1.47-5.38.67-6.85-2.44s-.67-5.38,2.45-6.85,5.37-.67,6.84,2.45S207.3,80.24,204.19,81.71Z"/><path class="cls-2" d="M277,96.8q2.23,4.67-2.38,6.87t-6.87-2.39q-2.22-4.66,2.39-6.87T277,96.8Z"/><path class="cls-2" d="M290,107.81c2.6-1.31,5.54,0,6.71,2.93a5.2,5.2,0,0,1-9.7,3.76A4.86,4.86,0,0,1,290,107.81Z"/><path class="cls-2" d="M220.5,78.89c-1,1-2.2.53-3.48,0s-2.69-.78-3.27-2.51c-.4-1.22-.71-2.22-.11-3.42s.64-2.77,2.37-3.39c1.3-.46,2.38-.95,3.76-.22s2.66.78,3.32,2.43A5.65,5.65,0,0,1,220.5,78.89Z"/><path class="cls-2" d="M342.4,187.17c1,1,.53,2.2,0,3.48s-.79,2.69-2.52,3.27a4.06,4.06,0,0,1-3.42.11c-1.24-.63-2.77-.64-3.38-2.37-.46-1.3-1-2.38-.23-3.76s.78-2.66,2.44-3.32A5.65,5.65,0,0,1,342.4,187.17Z"/><path class="cls-2" d="M251.19,80.64a5.67,5.67,0,0,1,7.27,2.45c.86,1.56.05,2.74-.23,4.12s-1.39,2-2.57,2.75c-1.57,1-2.76,0-4.11-.32s-1.89-1.17-2.57-2.26c-1-1.54-.32-2.76.14-4.12S249.83,80.58,251.19,80.64Z"/><path class="cls-2" d="M308,122a5.67,5.67,0,0,1,7.27,2.45c.86,1.56.05,2.74-.23,4.11-.32,1.53-1.38,2.05-2.56,2.76-1.58.94-2.76,0-4.12-.33a4,4,0,0,1-2.57-2.25c-1-1.55-.32-2.77.14-4.12S306.68,121.94,308,122Z"/><path class="cls-2" d="M338.53,201.05c1.42-1.31,2.71-.18,4.08.09s2.07,1.34,2.78,2.54c.95,1.58-.07,2.75-.29,4.12-.26,1.6-1.47,2-2.6,2.72-1.57,1-2.76-.09-4.12-.37s-1.86-1.21-2.53-2.29c-1-1.55-.19-2.75.17-4.12S337,201.27,338.53,201.05Z"/><path class="cls-2" d="M121.56,71.92c1.07,1.12.75,2.35.18,3.65s-.75,2.7-2.5,3.28c-1.21.39-2.21.73-3.41.12s-2.79-.62-3.4-2.35c-.45-1.28-1-2.36-.25-3.75.68-1.21.7-2.72,2.41-3.36,1.32-.49,2.42-.83,3.76-.16S121.26,70,121.56,71.92Z"/><path class="cls-2" d="M72.58,79.77c1,2.33-.38,5.9-2.66,6.84s-5.89-.48-6.79-2.79a5.76,5.76,0,0,1,2.57-6.58C68.27,76.06,71.83,77.85,72.58,79.77Z"/><path class="cls-2" d="M341.38,217.48c2.32-1,5.89.38,6.83,2.66s-.47,5.89-2.78,6.8-5.61-.46-6.58-2.58C337.68,221.82,339.44,218.25,341.38,217.48Z"/><path class="cls-2" d="M82.32,74.26c2.35-1,5.89.45,6.81,2.74s-.58,5.91-2.86,6.76-5.62-.54-6.56-2.65C78.68,78.81,80.05,75.21,82.32,74.26Z"/><path class="cls-2" d="M330.56,152c1.83-1,5.7-.1,6.92,2.42,1,2.1-.14,5.57-2.2,6.72s-5.81.07-7-2.18S328.3,153.12,330.56,152Z"/><path class="cls-2" d="M131.38,66.54c2.32-1,5.89.38,6.83,2.66s-.48,5.89-2.78,6.8a5.79,5.79,0,0,1-6.59-2.58C127.68,70.88,129.44,67.31,131.38,66.54Z"/><path class="cls-2" d="M342.05,288c1,2.35-.44,5.89-2.74,6.81s-5.9-.58-6.76-2.86.54-5.63,2.65-6.57C337.51,284.31,341.1,285.68,342.05,288Z"/><path class="cls-2" d="M147.78,63.68a5.79,5.79,0,0,1,6.89,2.53c1,2.34-.38,5.9-2.67,6.84a5.8,5.8,0,0,1-6.64-2.45C144.39,68.78,145.26,64.93,147.78,63.68Z"/><path class="cls-2" d="M171,63.06c1.16,2.18,0,5.82-2.3,7-2,1-5.56,0-6.76-2.09s-.16-5.83,2.05-7S169.83,60.82,171,63.06Z"/><path class="cls-2" d="M348.19,242.68c-2.33,1-5.89-.38-6.83-2.66s.48-5.89,2.78-6.79a5.77,5.77,0,0,1,6.59,2.57C351.9,238.37,350.11,241.93,348.19,242.68Z"/><path class="cls-2" d="M333.08,167.83c2.17-1.17,5.81,0,7,2.29,1,2.06,0,5.56-2.08,6.77s-5.84.15-7.06-2S330.83,169,333.08,167.83Z"/><path class="cls-2" d="M105.5,73.85c1,1.76.09,5.69-2.5,6.89a5.77,5.77,0,0,1-6.69-2.29c-1.18-2.17,0-5.81,2.25-7S104.4,71.59,105.5,73.85Z"/><path class="cls-2" d="M291.21,100.86c-1.52-.47-2.94.82-4.23-.2-1-.76-2.49-1.55-2.63-2.5-.19-1.24-1-2.77.06-4,.77-1,1.67-1.83,2.52-2.74,1.22.77,2.38-.63,3.78.05s1.51,2.12,2.83,2.48c-.47,1.35.63,2.62,0,4.11S291.34,99.42,291.21,100.86Z"/><path class="cls-2" d="M239,69.13c0,1.31.12,2.56.07,3.8-.06,1.62-1.88,2-2.46,3.25-1.25-.34-2.4.47-3.74.17-1.62-.35-1.81-2.13-3.18-2.59.53-1.25-.48-2.39-.14-3.75s2.13-1.57,2.34-3c1.24-.09,2.48-.21,3.72-.24C237.27,66.75,237.43,68.86,239,69.13Z"/><path class="cls-2" d="M180.45,58.73c1.43.52,2.89-.76,4.16.26,1,.77,2.55,1.67,2.57,2.53,0,1.31,1.08,2.8-.11,4.08-.84.91-1.7,2.48-2.59,2.51-1.3,0-2.81,1-4.09-.17-.82-.78-2.24-1.48-2.33-2.33-.14-1.29-1-2.76,0-4C178.82,60.57,179.66,59.65,180.45,58.73Z"/><path class="cls-2" d="M334.63,138a13.84,13.84,0,0,1-.31,4,4.91,4.91,0,0,1-2.43,2.7,6.09,6.09,0,0,1-3.91-.31,5.22,5.22,0,0,1-2.72-2.44,5.33,5.33,0,0,1,.17-3.66,5.1,5.1,0,0,1,2.38-2.76,6.17,6.17,0,0,1,4,.09C332.89,136,333.7,137.19,334.63,138Z"/><path class="cls-2" d="M350.36,258.7c-3,1.46-4.53,1-5.91-1.79s-.84-4.53,1.66-6c2.74-1.6,5.25-.45,6.21,1.89C353.49,255.7,353.05,257.39,350.36,258.7Z"/><path class="cls-2" d="M310.14,113.71a3.94,3.94,0,0,1-5.85-2c-1.22-3.06-.68-4.5,2.3-6.07a4.08,4.08,0,0,1,5.79,2.34C313.45,110.75,312.94,112.4,310.14,113.71Z"/><path class="cls-2" d="M272.06,86.22c-2.79,1.32-4.51.72-5.83-2-1.47-3.07-.91-4.6,2.22-6,2.73-1.24,4.43-.57,5.74,2.25S274.85,84.9,272.06,86.22Z"/><path class="cls-2" d="M248.9,64.68a4.4,4.4,0,0,1,3.77,8,4.4,4.4,0,1,1-3.77-8Z"/><path class="cls-2" d="M331.2,122.14c1,1.08.09,2.16-.11,3.31-.27,1.49-1.54,1.66-2.5,2.32-1.24.86-2.26.11-3.41-.1-1.49-.28-1.66-1.54-2.32-2.5-.86-1.24-.11-2.26.1-3.41.28-1.49,1.54-1.66,2.5-2.32,1.24-.86,2.29-.27,3.4.14C330.3,120.11,330.3,120.12,331.2,122.14Z"/><path class="cls-2" d="M203.11,58.8a4.41,4.41,0,1,1-5.81-2.25A4.14,4.14,0,0,1,203.11,58.8Z"/><path class="cls-2" d="M358.19,184.51c.68,2,.39,4.57-2.26,5.77a4.36,4.36,0,0,1-3.54-8A4.36,4.36,0,0,1,358.19,184.51Z"/><path class="cls-2" d="M358.8,206.83c-2.36.74-4.76.06-5.74-2.33a4.36,4.36,0,1,1,8-3.44A4.38,4.38,0,0,1,358.8,206.83Z"/><path class="cls-2" d="M328.12,105.28a4.41,4.41,0,1,1-5.84-2.17A4.53,4.53,0,0,1,328.12,105.28Z"/><path class="cls-2" d="M355.55,168.59a4.4,4.4,0,1,1-5.86-2.1A4.55,4.55,0,0,1,355.55,168.59Z"/><path class="cls-2" d="M363.89,217.24a4.37,4.37,0,0,1-1.91,5.9,4.36,4.36,0,1,1-4-7.75C360.25,214.16,362.54,215.17,363.89,217.24Z"/><path class="cls-2" d="M213.68,53.69a4.4,4.4,0,1,1-2.09,5.87A4.56,4.56,0,0,1,213.68,53.69Z"/><path class="cls-2" d="M287.88,83.63A4.4,4.4,0,1,1,290,77.77,4.56,4.56,0,0,1,287.88,83.63Z"/><path class="cls-2" d="M355.17,269.3a4.37,4.37,0,0,1-2,5.88,4.36,4.36,0,1,1-3.92-7.8C351.89,266.09,354.06,267.51,355.17,269.3Z"/><path class="cls-2" d="M307.23,97.23a4.41,4.41,0,1,1,2.16-5.84A4.53,4.53,0,0,1,307.23,97.23Z"/><path class="cls-2" d="M353.38,151.93c.74,2.37.06,4.77-2.34,5.75a4.36,4.36,0,0,1-3.43-8A4.38,4.38,0,0,1,353.38,151.93Z"/><path class="cls-2" d="M269.49,70.39c-1.32.67-5.38-.8-5.92-2.15s.72-4.94,1.94-5.72,5.19.52,6,1.91C272.24,65.67,270.87,69.69,269.49,70.39Z"/><path class="cls-2" d="M348.38,141.13c-1.25.71-5.3-.7-5.95-2.07-.56-1.2.64-4.91,1.86-5.74s5.18.44,6,1.82C351.07,136.34,349.77,140.34,348.38,141.13Z"/><path class="cls-2" d="M230,50.85c1.64-.61,5.44.63,5.95,1.92a4.91,4.91,0,0,1,0,2.69c-.67,3.06-2.83,4.09-5.68,2.79-2-.89-2.68-2.28-2-4.34A17.81,17.81,0,0,1,230,50.85Z"/><path class="cls-2" d="M342,117.34c2.34-1.09,3.68-.58,4.8,1.8,1.2,2.53.7,3.77-2,5-2.24,1-3.59.43-4.72-2C339.06,119.79,339.59,118.47,342,117.34Z"/><path class="cls-2" d="M357.45,286.19c1.13,2.38.66,3.74-1.65,4.85-2.55,1.22-3.86.74-5.05-1.86-1.06-2.31-.53-3.64,1.89-4.77S356.34,283.82,357.45,286.19Z"/><path class="cls-2" d="M363.8,239.37c-2.39,1.13-3.74.67-4.86-1.64-1.22-2.55-.73-3.87,1.86-5.06,2.31-1.06,3.64-.53,4.77,1.89S366.16,238.26,363.8,239.37Z"/><path class="cls-2" d="M129,51.43c2.38-1.13,3.74-.66,4.85,1.66,1.22,2.54.73,3.86-1.87,5-2.31,1.06-3.63.53-4.77-1.91S126.64,52.55,129,51.43Z"/><path class="cls-2" d="M306.16,75.93c1.08,2.33.58,3.67-1.8,4.8-2.53,1.19-3.78.69-5-2-1-2.24-.43-3.58,2-4.72C303.7,73,305,73.48,306.16,75.93Z"/><path class="cls-2" d="M101.54,58.57c1.17,2.44.75,3.8-1.51,4.9-2.45,1.2-3.87.8-5-1.38-1.31-2.66-.9-4,1.6-5.15S100.43,56.26,101.54,58.57Z"/><path class="cls-2" d="M118.05,55.72c1.15,2.41.7,3.77-1.59,4.87-2.56,1.24-3.89.77-5.07-1.8-1.08-2.32-.57-3.66,1.83-4.79S116.94,53.38,118.05,55.72Z"/><path class="cls-2" d="M150.43,50.36c1.08,2.33.58,3.68-1.8,4.8-2.53,1.19-3.78.69-5-2-1-2.24-.43-3.58,2-4.71C148,47.38,149.29,47.92,150.43,50.36Z"/><path class="cls-2" d="M167.25,48.16c1.06,2.32.54,3.65-1.87,4.78s-3.76.63-5-2.08c-1-2.3-.49-3.5,2.12-4.69C164.79,45.14,166.11,45.7,167.25,48.16Z"/><path class="cls-2" d="M181.85,50A3.65,3.65,0,0,1,177,48.27a3.57,3.57,0,0,1,2-5,3.47,3.47,0,0,1,4.7,2A3.7,3.7,0,0,1,181.85,50Z"/><path class="cls-2" d="M287.39,61.94a3.64,3.64,0,0,1-1.67,4.85,3.59,3.59,0,0,1-5.05-1.87,3.78,3.78,0,0,1,1.91-4.77A3.65,3.65,0,0,1,287.39,61.94Z"/><path class="cls-2" d="M368.1,250.25a3.71,3.71,0,0,1-1.57,4.87,3.49,3.49,0,0,1-4.91-1.44,3.58,3.58,0,0,1,1.64-5.12A3.65,3.65,0,0,1,368.1,250.25Z"/><path class="cls-2" d="M251.52,51.3a3.67,3.67,0,1,1-6.74,2.91,3.81,3.81,0,0,1,1.95-4.74A3.67,3.67,0,0,1,251.52,51.3Z"/><path class="cls-2" d="M84.77,60.88a3.71,3.71,0,0,1-1.6,4.87,3.81,3.81,0,0,1-4.92-1.49,3.67,3.67,0,1,1,6.52-3.38Z"/><path class="cls-2" d="M325.57,89.54a3.69,3.69,0,1,1-6.85,2.72,3.69,3.69,0,0,1,6.85-2.72Z"/><path class="cls-2" d="M63.57,62a4.41,4.41,0,0,1,4.8,2,4.42,4.42,0,0,1-2,4.81,4.41,4.41,0,0,1-4.81-2A4.4,4.4,0,0,1,63.57,62Z"/><path class="cls-2" d="M199.47,42.48a4.4,4.4,0,0,1-1.69,4.91,4.42,4.42,0,0,1-4.91-1.68,4.42,4.42,0,0,1,1.69-4.91A4.41,4.41,0,0,1,199.47,42.48Z"/><path class="cls-2" d="M342.48,108.2a4.43,4.43,0,0,1-4.88-1.76,3.67,3.67,0,1,1,4.88,1.76Z"/><path class="cls-2" d="M368.42,149.42c.58,1-.49,4.29-1.61,4.93s-4.3-.49-4.94-1.61.5-4.3,1.62-4.94S367.79,148.3,368.42,149.42Z"/><path class="cls-2" d="M369.62,170.88c-1.05.5-4.39-.7-4.88-1.75s.7-4.39,1.75-4.89,4.39.7,4.88,1.75S370.67,170.38,369.62,170.88Z"/><path class="cls-2" d="M371.94,196.57c1-.53,4.34.61,4.91,1.69s-.6,4.34-1.69,4.91-4.33-.61-4.9-1.69S370.86,197.15,371.94,196.57Z"/><path class="cls-2" d="M216,39.67c.47,1.14-.77,4.43-1.82,4.86s-4.43-.77-4.86-1.82.77-4.43,1.82-4.86S215.57,38.61,216,39.67Z"/><path class="cls-2" d="M268,48.36c.5,1-.7,4.39-1.75,4.89s-4.39-.7-4.88-1.75.7-4.39,1.75-4.89S267.5,47.31,268,48.36Z"/><path class="cls-2" d="M374.21,182.34c.59,1-.44,4.3-1.54,5s-4.3-.44-5-1.54.44-4.3,1.54-5S373.55,181.24,374.21,182.34Z"/><path class="cls-2" d="M360.17,135.36c-1.05-2.29-.91-2.63,1.57-3.78s2.76-.92,4,1.78c.93,2.07.7,2.55-1.81,3.69C361.68,138.07,361.34,137.91,360.17,135.36Z"/><path class="cls-2" d="M51.9,66.9c1.05,2.3.91,2.63-1.57,3.78s-2.77.93-4-1.77c-.93-2.08-.7-2.55,1.81-3.69C50.39,64.2,50.73,64.35,51.9,66.9Z"/><path class="cls-2" d="M368.8,271.11c-2.29,1.05-2.63.91-3.78-1.57s-.92-2.77,1.78-4c2.07-.93,2.55-.7,3.69,1.81C371.51,269.6,371.35,269.94,368.8,271.11Z"/><path class="cls-2" d="M381.32,231.83a3,3,0,0,1-1.2,3.91,2.93,2.93,0,0,1-4.11-1.42,2.93,2.93,0,0,1,5.31-2.49Z"/><path class="cls-2" d="M302.47,59.5a3,3,0,0,1-1.09,4,2.94,2.94,0,1,1,1.09-4Z"/><path class="cls-2" d="M359,115.84a3,3,0,0,1,3.92,1.19,2.94,2.94,0,0,1-1.4,4.12,2.94,2.94,0,0,1-2.52-5.31Z"/><path class="cls-2" d="M320.61,77.12a3,3,0,0,1-3.91-1.21,2.93,2.93,0,0,1,1.42-4.11,2.94,2.94,0,0,1,2.49,5.32Z"/><path class="cls-2" d="M283.81,45.76a3,3,0,0,1-1.31,3.88,2.94,2.94,0,0,1-4.07-1.52,2.94,2.94,0,0,1,5.38-2.36Z"/><path class="cls-2" d="M232,37.54a3,3,0,0,1-1.09,4,2.95,2.95,0,1,1,1.09-4Z"/><path class="cls-2" d="M339.38,91a2.94,2.94,0,1,1-2.57-5.28A2.94,2.94,0,0,1,339.38,91Z"/><path class="cls-2" d="M377.13,219.29a3,3,0,0,1-3.91-1.21,2.93,2.93,0,0,1,1.41-4.11,2.94,2.94,0,0,1,2.5,5.32Z"/><path class="cls-2" d="M373.27,283.33a3.54,3.54,0,0,1,0,.95,19.68,19.68,0,0,1-1,2.72c-.14.29-.7.48-1.09.52s-.68-.22-1-.34c-2.87-1.05-2.62-.57-1.64-3.46.58-1.72.6-2,2.54-1.19C371.83,282.84,372.61,283.09,373.27,283.33Z"/><path class="cls-2" d="M247.52,38.61c-.45.08-.7.2-.89.14-.92-.3-1.83-.65-2.75-1-.73-.26-.8-.75-.54-1.41a22,22,0,0,1,.9-2.38c.16-.32.73-.7,1-.63a23,23,0,0,1,3.08,1.08.69.69,0,0,1,.35.57C248.32,36.26,247.89,37.49,247.52,38.61Z"/><path class="cls-2" d="M337.68,70.48c.73,1.38.51,2.3-.72,3s-2.34.57-3-.6c-.87-1.5-.62-2.51.82-3.22S337,69.19,337.68,70.48Z"/><path class="cls-2" d="M359.36,101c.69,1.39.44,2.25-.85,2.93s-2.3.51-3-.72c-.86-1.55-.59-2.47.94-3.18C357.85,99.32,358.68,99.6,359.36,101Z"/><path class="cls-2" d="M176.48,28.22c1.39-.67,2.22-.4,2.9.93.82,1.59.52,2.41-1.13,3.11-1.36.58-2.19.23-2.82-1.17S175.1,28.88,176.48,28.22Z"/><path class="cls-2" d="M318.3,56.93c.72,1.38.49,2.28-.76,3s-2.33.54-3-.65c-.86-1.5-.6-2.49.85-3.21S317.62,55.62,318.3,56.93Z"/><path class="cls-2" d="M160.13,31.06c1.37-.59,2.18-.27,2.83,1.14s.28,2.41-1.34,3c-1.29.5-2.16.07-2.74-1.37S158.65,31.71,160.13,31.06Z"/><path class="cls-2" d="M146.52,35.19c.59,1.37.27,2.18-1.14,2.83s-2.41.28-3-1.34c-.5-1.3-.07-2.16,1.38-2.75S145.87,33.71,146.52,35.19Z"/><path class="cls-2" d="M129.28,39.94c-1.39.65-2.22.37-2.9-1-.78-1.57-.46-2.41,1.18-3.09,1.35-.57,2.18-.21,2.81,1.21S130.67,39.28,129.28,39.94Z"/><path class="cls-2" d="M112.79,42.84c-1.39.66-2.22.38-2.89-1-.79-1.57-.47-2.41,1.18-3.1,1.35-.56,2.17-.21,2.8,1.21S114.18,42.19,112.79,42.84Z"/><path class="cls-2" d="M380.59,247.69c1.39-.7,2.25-.45,2.93.85s.51,2.29-.72,3c-1.54.85-2.46.58-3.18-.94S379.24,248.36,380.59,247.69Z"/><path class="cls-2" d="M382.66,150.12c-1.39.7-2.26.45-2.94-.85s-.5-2.29.73-3c1.54-.85,2.46-.58,3.18.94S384,149.45,382.66,150.12Z"/><path class="cls-2" d="M383.52,162.7c1.39-.69,2.25-.44,2.93.85s.51,2.3-.72,3c-1.54.86-2.46.59-3.18-.93S382.17,163.38,383.52,162.7Z"/><path class="cls-2" d="M377.84,130.05a22.05,22.05,0,0,1,3.09,1.23c.49.27-.45,3.13-1,3-1-.16-2.37-.42-2.73-1.1S377.53,131.32,377.84,130.05Z"/><path class="cls-2" d="M390.82,200.31a20.78,20.78,0,0,1-3.05-1.38c-.5-.33.58-3.13,1.13-3,1,.23,2.34.53,2.69,1.22S391.17,199,390.82,200.31Z"/><path class="cls-2" d="M81.26,45.63c-.56,1.19-.79,2.59-1.49,2.89s-1.94-.38-2.81-.87c-.5-.28.55-3.09,1.12-3A22.25,22.25,0,0,1,81.26,45.63Z"/><path class="cls-2" d="M260.76,31.05c1.18.58,2.58.82,2.87,1.52s-.4,2-.9,2.8c-.29.49-3.1-.6-3-1.15A28,28,0,0,1,260.76,31.05Z"/><path class="cls-2" d="M196.19,26c-.42,1.21-.49,2.64-1.15,3s-2-.2-2.94-.53c-.49-.17.2-3.1.82-3.12A16.25,16.25,0,0,1,196.19,26Z"/><path class="cls-2" d="M296.64,41.73c1.18.57,2.58.82,2.87,1.52s-.4,1.94-.9,2.8c-.29.49-3.1-.61-3-1.16A23.86,23.86,0,0,1,296.64,41.73Z"/><path class="cls-2" d="M389.73,179.92a26.85,26.85,0,0,1-1.18,3.1c-.26.49-3.14-.42-3.06-1,.14-1,.39-2.38,1.06-2.75S388.45,179.62,389.73,179.92Z"/><path class="cls-2" d="M94.11,41.5c1.21.42,2.64.49,3,1.15s-.2,2-.52,2.94c-.17.49-3.1-.2-3.12-.82A16.25,16.25,0,0,1,94.11,41.5Z"/><path class="cls-2" d="M356.85,84.35a19.88,19.88,0,0,1-1.36,3.05c-.33.5-3.13-.57-3-1.12.23-1,.52-2.35,1.21-2.69S355.58,84,356.85,84.35Z"/><path class="cls-2" d="M385.44,264.64c.75,1.51.73,1.46-.61,2.17-.89.48-1.44.58-1.91-.55-.62-1.51-.68-1.43.66-2.14C384.47,263.65,385.14,263.47,385.44,264.64Z"/><path class="cls-2" d="M391.72,212.41c.8-.56,1.38-.56,1.85.56.62,1.51.67,1.43-.66,2.14-.89.48-1.45.58-1.91-.56C390.38,213,390.3,213.08,391.72,212.41Z"/><path class="cls-2" d="M211.55,25.07c.83,1.28-.36,1.37-1,1.69-1.22.59-1.17.49-2-1.08-.67-1.35.39-1.39,1.06-1.71C210.83,23.38,210.88,23.43,211.55,25.07Z"/><path class="cls-2" d="M377.56,115.45c.72,1,.12,1.37-.79,1.75-1.39.59-1.29.59-2.07-.86-.58-1.09-.12-1.44.8-1.82C376.89,113.94,376.87,113.89,377.56,115.45Z"/><path class="cls-2" d="M280,29.78c-.47.9-.66,1.8-1.13,2s-1.25-.3-1.89-.5c.26-.7.36-1.59.85-2.05C278.08,29,279.05,29.51,280,29.78Z"/><path class="cls-2" d="M228.12,21.53a10,10,0,0,1-.73,2.12c-.31.49-2.08,0-2.11-.57a2.32,2.32,0,0,1,.61-1.83C226.33,21,227.17,21.38,228.12,21.53Z"/><path class="cls-2" d="M64.4,47.71a9.16,9.16,0,0,1-.9,2.11c-.38.48-2.08-.07-2.07-.68a2.32,2.32,0,0,1,.73-1.79C62.6,47.1,63.42,47.52,64.4,47.71Z"/><path class="cls-2" d="M48,50.68a9.78,9.78,0,0,1-1.07,2.08c-.44.46-2.1-.2-2-.79a2.43,2.43,0,0,1,.85-1.75C46.21,50,47,50.44,48,50.68Z"/><path class="cls-2" d="M312.62,39.8c.92.43,2,.66,2,1a5.54,5.54,0,0,1-.69,2.12c-.62-.28-1.52-.4-1.76-.87S312.4,40.8,312.62,39.8Z"/><path class="cls-2" d="M331.93,53.54a10,10,0,0,1,2.12.72c.5.31,0,2.08-.57,2.12a2.33,2.33,0,0,1-1.83-.62C331.39,55.33,331.78,54.49,331.93,53.54Z"/><path class="cls-2" d="M375.55,98.18a9.36,9.36,0,0,1-.9,2.11c-.38.48-2.08-.07-2.07-.68a2.32,2.32,0,0,1,.73-1.79C373.75,97.57,374.57,98,375.55,98.18Z"/><path class="cls-2" d="M352.49,69c-.05.32-.13.8-.22,1.29l-2.07-.81c.25-.6.34-1.49.79-1.76C352,67.14,351.92,68.36,352.49,69Z"/><path class="cls-2" d="M409.42,212.6c-.5-.43-.89-.63-1-.94s.28-.77.36-.76a2.18,2.18,0,0,1,1,.49C409.88,211.48,409.64,211.93,409.42,212.6Z"/><path class="cls-2" d="M398.77,147c-.5-.43-.88-.63-1-.94s.28-.78.36-.76a2.09,2.09,0,0,1,1,.49C399.23,145.89,399,146.34,398.77,147Z"/><path class="cls-2" d="M175.49,13.1c-.26.65-.35,1.15-.49,1.16a2,2,0,0,1-1.11-.28c-.08,0,0-.74.2-.82A4.37,4.37,0,0,1,175.49,13.1Z"/><path class="cls-2" d="M400.65,160.69c.54.39,1,.58,1,.73a3.65,3.65,0,0,1-.45,1.07c-.28-.14-.74-.24-.78-.43A4.33,4.33,0,0,1,400.65,160.69Z"/><path class="cls-2" d="M158.39,17.71c-.5-.44-.89-.64-1-.95s.29-.77.37-.75a2.08,2.08,0,0,1,1,.48C158.85,16.59,158.6,17,158.39,17.71Z"/><path class="cls-2" d="M387,283.23c-.58-.31-1-.42-1.22-.69s.1-.57.17-.87a3.51,3.51,0,0,1,1.11.33c.13.08,0,.56-.06,1.23"/><path class="cls-2" d="M394.82,229.19c.54.39,1,.58,1,.73a3.69,3.69,0,0,1-.46,1.07c-.27-.14-.74-.24-.78-.43A4.13,4.13,0,0,1,394.82,229.19Z"/><path class="cls-2" d="M191.92,12.44c-.58-.31-1-.42-1.22-.69s.1-.57.17-.87a3.78,3.78,0,0,1,1.11.32C192.11,11.29,192,11.77,191.92,12.44Z"/><path class="cls-2" d="M143.18,18.6c-.26.65-.35,1.15-.49,1.16a2,2,0,0,1-1.11-.28c-.07,0,0-.74.2-.82A4.39,4.39,0,0,1,143.18,18.6Z"/><path class="cls-2" d="M311.17,24.33c.54.38,1,.58,1,.73a3.69,3.69,0,0,1-.46,1.07c-.27-.14-.74-.24-.78-.43A4.13,4.13,0,0,1,311.17,24.33Z"/><path class="cls-2" d="M406.76,196c-.58-.31-1-.42-1.22-.69s.1-.57.17-.87a3.51,3.51,0,0,1,1.11.33C407,194.85,406.8,195.33,406.76,196Z"/><path class="cls-2" d="M401.3,263a4.26,4.26,0,0,1-.68,1.22c-.15.12-.57-.1-.87-.17a3.26,3.26,0,0,1,.32-1.11C400.16,262.77,400.64,262.91,401.3,263Z"/><path class="cls-2" d="M125.37,21.06c.54.39,1,.58,1,.74a3.38,3.38,0,0,1-.46,1.06c-.27-.14-.74-.24-.77-.42A4.34,4.34,0,0,1,125.37,21.06Z"/><path class="cls-2" d="M295.82,27.29c-.43.51-.63.89-.94,1s-.77-.28-.76-.37a2.18,2.18,0,0,1,.49-1C294.7,26.83,295.15,27.08,295.82,27.29Z"/><path class="cls-2" d="M110,24c-.44.5-.63.88-1,1-.16.08-.77-.28-.75-.37a2,2,0,0,1,.49-1C108.91,23.56,109.36,23.81,110,24Z"/><path class="cls-2" d="M397.72,245.67c.55.39,1,.59,1,.74a3.49,3.49,0,0,1-.45,1.06c-.28-.14-.74-.23-.78-.42A4.38,4.38,0,0,1,397.72,245.67Z"/><path class="cls-2" d="M404.23,178a4.32,4.32,0,0,1-.68,1.21c-.15.12-.57-.1-.87-.16a3.26,3.26,0,0,1,.32-1.11C403.09,177.78,403.57,177.92,404.23,178Z"/><path class="cls-2" d="M93,28.24c-.58-.31-1-.42-1.22-.69s.1-.57.17-.87A3.78,3.78,0,0,1,93.1,27C93.23,27.09,93.08,27.57,93,28.24Z"/><path class="cls-2" d="M275,13c.55.39,1,.58,1,.74a3.6,3.6,0,0,1-.45,1.06c-.28-.14-.74-.24-.78-.43A4.33,4.33,0,0,1,275,13Z"/><path class="cls-2" d="M259.15,15.58c.54.39,1,.59,1,.74a3.29,3.29,0,0,1-.46,1.06c-.27-.14-.73-.24-.77-.42A4.38,4.38,0,0,1,259.15,15.58Z"/><path class="cls-2" d="M242.42,18.6c.65.26,1.16.35,1.17.49a2.09,2.09,0,0,1-.28,1.11c-.05.08-.75,0-.82-.2A4.08,4.08,0,0,1,242.42,18.6Z"/><path class="cls-2" d="M396.48,128.82c-.26.65-.36,1.16-.49,1.17a2.09,2.09,0,0,1-1.11-.28c-.08,0,0-.74.2-.82A4,4,0,0,1,396.48,128.82Z"/><path class="cls-2" d="M224.73,5.63c-.43.51-.63.89-.94,1S223,6.39,223,6.3a2,2,0,0,1,.49-1C223.61,5.17,224.06,5.42,224.73,5.63Z"/><path class="cls-2" d="M208.91,8.23c-.44.5-.63.88-.95,1-.16.08-.77-.28-.75-.36a2,2,0,0,1,.49-1C207.79,7.76,208.24,8,208.91,8.23Z"/><path class="cls-2" d="M29.88,239.92c-15.47-24-7.28-82-4.63-134.65C26,90.7,32,76.69,42.82,66.87c23.53-21.43,50.09-7.12,73.12,4.65,18.27,9.33,41.36,17.1,58.22,5.42,12.31-8.53,16.55-24.35,22.66-38C204.69,21.34,218.51,4.72,237.38.84,261.1-4,284.59,13.05,296.66,34.05s15.91,45.54,22.88,68.73c10,33.15,26.57,64.17,34.68,97.83s6.14,72.63-17.11,98.29C318.81,319.09,290,327.49,262.82,326s-53.22-11.67-77.61-23.84c-19.51-9.73-39.32-21.06-61.11-21.58-14.48-.34-43.91.48-57-5.72C52.7,268.08,38.51,253.32,29.88,239.92Z"/><path class="cls-2" d="M185.21,302.2c-19.51-9.73-39.32-21.06-61.11-21.58-14.48-.34-43.91.48-57-5.72-14.4-6.82-28.59-21.58-37.22-35-15.47-24-7.28-82-4.63-134.65C26,90.7,32,76.69,42.82,66.87c23.53-21.43,50.09-7.12,73.12,4.65"/></g></g></svg>