<svg xmlns="http://www.w3.org/2000/svg" viewBox="0 0 164.67 90.35"><defs><style>.cls-1{fill:#fff;}.cls-2{fill:#acd4f7;}.cls-3{opacity:0.13;}.cls-4{fill:#212227;}</style></defs><g id="Layer_2" data-name="Layer 2"><g id="Layer_1-2" data-name="Layer 1"><path class="cls-1" d="M33.87,20.74c-6,16.73-12,33.5-16,51.06a35.87,35.87,0,0,0,9.56,1.83l3.69-12.91a1,1,0,0,0-.41-.18A14.12,14.12,0,0,1,37.23,64a39.51,39.51,0,0,1,5.15,5.92,5.82,5.82,0,0,0,3.9,5.6,7.94,7.94,0,0,0,7.08-1.11,8.46,8.46,0,0,0,0,3.25A5.11,5.11,0,0,0,53.8,79,4.85,4.85,0,0,0,56,81a8,8,0,0,0,5.06.71,4.84,4.84,0,0,0,3.26,4.67A8.82,8.82,0,0,0,70.36,86,5.41,5.41,0,0,0,71.56,88a4.2,4.2,0,0,0,2.37.93A9.77,9.77,0,0,0,80,87.4a7.56,7.56,0,0,0,6.91.11,5.33,5.33,0,0,0,1.52-1.1,5.62,5.62,0,0,0,1.33-3.5,31.07,31.07,0,0,0-.22-3.83,15.87,15.87,0,0,0,3.55,3.3,6.09,6.09,0,0,0,4.66.88,5.5,5.5,0,0,0,3.12-2.43,8.5,8.5,0,0,0,1.19-4,24.9,24.9,0,0,0,1.72,2.48,9.08,9.08,0,0,0,2,2,4,4,0,0,0,2.68.75,4.27,4.27,0,0,0,3.21-2.69,12.58,12.58,0,0,0,.76-4.31,24.18,24.18,0,0,0,.06-2.56,27,27,0,0,0,2.56,4.18A8.87,8.87,0,0,0,119,79.62c.38.13.77.23,1.16.33a2.36,2.36,0,0,0,1.9-.07,1.89,1.89,0,0,0,.67-1.37,3.74,3.74,0,0,1,.33-1.58c5.86-2.21,11.63-4.66,17.22-7.3a48.33,48.33,0,0,0,2,6.06,51.82,51.82,0,0,0,12-4.41,53.75,53.75,0,0,0,9.53-4.53c-.48-16.57-3.3-33.36-10.87-48.1A10.72,10.72,0,0,0,151.16,16,174.68,174.68,0,0,0,127,26.55a2.75,2.75,0,0,1,.43,1.31c-8.06.57-16-2.15-23.56-4.84a28.4,28.4,0,0,0-7.43-1.9,47.79,47.79,0,0,0-7.08.47,34.52,34.52,0,0,0-8.75-3.53A20,20,0,0,0,75,17.13a19.3,19.3,0,0,0-5.15.92c-9,2.64-17.46,7.51-26.83,8.39.07-.63.14-1.26.22-1.89a1.48,1.48,0,0,0-.12-1A35.85,35.85,0,0,0,33.87,20.74Z"/><path d="M159.43,66.37l-.09,0-8.26-3.11a.25.25,0,0,1-.15-.32.25.25,0,0,1,.33-.15l8.26,3.11a.25.25,0,0,1,.15.32A.25.25,0,0,1,159.43,66.37Z"/><path d="M162.22,63.27h-.08a126.35,126.35,0,0,1-13.39-5.44.25.25,0,0,1-.12-.34.26.26,0,0,1,.34-.12,127.55,127.55,0,0,0,13.34,5.42.24.24,0,0,1,.15.32A.25.25,0,0,1,162.22,63.27Z"/><path d="M162.93,58.4h-.08c-5.06-1.66-10.1-3.54-15-5.61a.25.25,0,0,1-.14-.33.27.27,0,0,1,.34-.14c4.88,2.06,9.91,3.95,14.95,5.59a.26.26,0,0,1,.17.32A.26.26,0,0,1,162.93,58.4Z"/><path d="M162.93,53.72h-.09C157,51.5,152.39,49.59,146.11,47a.26.26,0,0,1-.13-.34.24.24,0,0,1,.33-.13c6.27,2.64,10.82,4.54,16.71,6.75a.25.25,0,0,1,.14.33A.24.24,0,0,1,162.93,53.72Z"/><path d="M161.46,48.44l-.09,0L144.5,41.54a.25.25,0,0,1,.19-.47L161.56,48a.25.25,0,0,1,.14.33A.26.26,0,0,1,161.46,48.44Z"/><path d="M160.92,43.39l-.1,0-18.33-8.12a.27.27,0,0,1-.13-.33.26.26,0,0,1,.34-.13L161,42.9a.26.26,0,0,1,.13.34A.26.26,0,0,1,160.92,43.39Z"/><path d="M159.13,37l-.1,0-18.49-8.31a.26.26,0,0,1-.13-.34.26.26,0,0,1,.34-.13l18.49,8.31a.26.26,0,0,1,.12.34A.25.25,0,0,1,159.13,37Z"/><path d="M155,28.73l-.09,0c-4.6-1.77-9.28-3.47-13.93-5.06a.24.24,0,0,1-.15-.32.25.25,0,0,1,.32-.16c4.65,1.59,9.34,3.3,13.94,5.07a.25.25,0,0,1,.14.33A.24.24,0,0,1,155,28.73Z"/><path d="M154.61,22.89l-.1,0-6.6-2.76a.24.24,0,0,1-.13-.33.25.25,0,0,1,.33-.14l6.6,2.76a.24.24,0,0,1,.13.33A.25.25,0,0,1,154.61,22.89Z"/><path class="cls-2" d="M14.73,14.58c6.52,2.19,13.11,4.18,19.4,6.06-1,4.35-3.68,8.11-5.46,12.21a64.14,64.14,0,0,0-2.33,6.71q-4.86,15.94-9.31,32A101.78,101.78,0,0,0,.47,67.44C6.21,49.58,11.39,32.43,14.73,14.58Z"/><g class="cls-3"><path d="M137.89,67.42a30.36,30.36,0,0,0-3,1.08,2.89,2.89,0,0,0-.66,0,7.29,7.29,0,0,0-1.43.48c-.51.17-1,.34-1.5.55a10.39,10.39,0,0,1-1,.36l-.18.06-.44.14h-.27l-.3-.07h0a7.1,7.1,0,0,1-.59-.64c-.25-.32,0,0,.12.16a7.91,7.91,0,0,0-.52-.63,1.22,1.22,0,0,0-.14-.16c-.17-.24-.32-.49-.48-.73a33.12,33.12,0,0,1-1.77-3c-1.14-2.22-2.19-4.48-3.41-6.66a41.91,41.91,0,0,0-2.19-4.4,48.25,48.25,0,0,0-8.81-10.31,37.56,37.56,0,0,0-8.11-6.19,15.89,15.89,0,0,0-6.45-2.37,1.1,1.1,0,1,0-.34,2.15A11.66,11.66,0,0,1,101.32,39a1.18,1.18,0,0,0,.27,1.29c1.63,1.41,3.5,2.49,5.19,3.82-.08-.05.86.74,1,.94s.39.39.58.59a.75.75,0,0,0-.24.57c.11.71.9,1.53,1.25,2.19,1.86,2.83,4,5.47,5.63,8.48a39.9,39.9,0,0,1,4.31,13.75c.37,1.74.57,4.91,0,5.81l-.15.16-.12.07-.21.08-.11,0h-.48l-.17,0c-.63-.16-.29,0-1.24-.53a1.27,1.27,0,0,0-1.28,2.2c3.6,2.6,6.12,1.67,6.84-1.84a18.62,18.62,0,0,0-.26-6.4c.11.32.22.64.32,1,.21,1.25.38,2.44.55,3.49l-.08.1a1.36,1.36,0,0,0,.47,1.83,1.19,1.19,0,0,0,1.27.47,1.06,1.06,0,0,0,.74-.68A74.47,74.47,0,0,0,136.91,71a8.42,8.42,0,0,1,1.57-.88,2.16,2.16,0,0,0,1-.7,1.9,1.9,0,0,0,.48-.46C140.64,67.53,139,66.83,137.89,67.42Z"/></g><g class="cls-3"><path d="M163.07,63.36a1.45,1.45,0,0,0-.59.13c-.92.27-1.74.86-2.64,1.19-1.59.77-2.21.91-4.35,1.94-3.68,1.95-9.79,3.87-13.07,5.24a1.72,1.72,0,0,0,.91,3.32c3.45-1.12,6.7-2.73,10-4.15,1.75-.81,5.09-2,7.85-3.37,1.29-.67,2.9-1.47,3.06-1.87A1.51,1.51,0,0,0,163.07,63.36Z"/></g><g class="cls-3"><polygon points="31.64 60.79 31.64 60.79 31.64 60.79 31.64 60.79"/></g><g class="cls-3"><path d="M41.26,27.93c-1.4,5-3.86,8.78-5.67,14.35A72.49,72.49,0,0,0,33,52.22c-.4,1.49-.7,3-1,4.51a11.66,11.66,0,0,0-.38,4.06,2.3,2.3,0,0,0,3,1.53c.75.79,1.55,1.54,2.35,2.28v-.1A44.21,44.21,0,0,1,37,60a11.06,11.06,0,0,1-.5-2.59c.31-1.64.7-3.27.9-4.94a88.83,88.83,0,0,1,4-15.69c.52-1.53.92-3.1,1.59-4.57.47-1.33,1.25-2.69,1.25-4.12A1.56,1.56,0,0,0,41.26,27.93Z"/></g><g class="cls-3"><path d="M42.84,68.9a.74.74,0,0,1-.74.56,1.17,1.17,0,0,0,.88.12,1.08,1.08,0,0,0,.79-1.11Z"/></g><g class="cls-3"><path d="M31.64,60.79c0-.2-.06-.4-.08-.6A2.29,2.29,0,0,0,31.64,60.79Z"/></g><g class="cls-3"><path d="M52.1,73c-.59.4-1.39.27-2.93.25a16.06,16.06,0,0,1-3.48-.39c-.75-.17-1.45-.75-2.24-.65a1.38,1.38,0,0,0-.18,2.7,20.32,20.32,0,0,0,3.16,1,6,6,0,0,0,2.78.19,11.86,11.86,0,0,0,3.28-1.29c.42-.27,1-.48,1.14-1A.9.9,0,0,0,52.1,73Z"/></g><g class="cls-3"><path d="M67.71,75c-.51.17-.62.45-1.42.88a12.23,12.23,0,0,1-4.43,1.45,14.6,14.6,0,0,1-4.12.56,13.42,13.42,0,0,1-2.1-.09,3.63,3.63,0,0,0-1.38-.16A1.73,1.73,0,0,0,54,81c4.55,1.32,8.3,0,11.52-2a15.37,15.37,0,0,0,2.77-2c.45-.5.57-.41.67-1.11A1,1,0,0,0,67.71,75Z"/></g><g class="cls-3"><path d="M86.83,84.39c-1,.13-.72.25-1.23.4a9.68,9.68,0,0,1-1.89.64c-1,.17-.95.16-1.2.19a1.09,1.09,0,0,0,.2-.87,1.24,1.24,0,0,0-1.24-1.1c-.75,0-1.32.66-2,.93a21.68,21.68,0,0,1-3,1.19,12.19,12.19,0,0,1-3.4.5c-.65,0-1.29-.45-1.89-.52A21,21,0,0,0,74.56,84a17.79,17.79,0,0,0,3.38-2.74,1.07,1.07,0,0,0,.36-.79,1,1,0,0,0-.51-.89,1,1,0,0,0-1.26.16c.07,0,.24-.19.14-.12-.51.32-1,.63-1.54.93A26.33,26.33,0,0,1,65.68,84a8.51,8.51,0,0,1-1.82.08H63.7a6.59,6.59,0,0,0-1.38-.21,1,1,0,0,0-.13,2,12.08,12.08,0,0,0,3,.76,14,14,0,0,0,3.23-.16,8.8,8.8,0,0,0,1.69-.3,1.31,1.31,0,0,0,.27,2A9.63,9.63,0,0,0,78.85,88a9.89,9.89,0,0,0,1.46-.72,1.61,1.61,0,0,0,1.6,1.64c1.73-.22,3.59-.31,5-1.36.44-.33,1-.61,1.2-1.16A1.45,1.45,0,0,0,86.83,84.39Z"/></g><g class="cls-3"><path d="M100.79,78c-1.06.54-.8.64-1.49,1.07a4.59,4.59,0,0,1-2.36,1,4.45,4.45,0,0,1-1.53.18l-.37,0-.42-.09c-.89-.14-1.82-.8-2.68-.28a1.54,1.54,0,0,0,.36,2.78,10.38,10.38,0,0,0,3.57.6,8.65,8.65,0,0,0,4.1-1.44,19.58,19.58,0,0,0,1.67-1.34,1.62,1.62,0,0,0,.76-1.25A1.29,1.29,0,0,0,100.79,78Z"/></g><g class="cls-3"><path d="M112.8,73.75a1.47,1.47,0,0,0-1.06-1.43h-.1a14.31,14.31,0,0,0-.27-3.58,26,26,0,0,0-2.26-5.09,18.6,18.6,0,0,0-3-4.89.89.89,0,0,0-1.43.7c0,.61.6,1,.88,1.55a19.26,19.26,0,0,1,2.83,6.69,15.09,15.09,0,0,1,.8,7.19V75c0,.13-.05.27-.08.4a1.83,1.83,0,0,1-.08.28c-.15.25-.31.49-.47.72s-.63.75-.87,1l-.16.09a4.66,4.66,0,0,1-2.07-.38c-.36-.14-.43-.18,0,0a13,13,0,0,0-1.86-.77,1.41,1.41,0,0,0-.9,2.6c.46.23,1,.46,1.42.66a1.69,1.69,0,0,0,.83,1.19l.34.16a1.5,1.5,0,0,0,1.15,1.38,4.14,4.14,0,0,0,1.94.2,4.64,4.64,0,0,0,.75-.27,2.88,2.88,0,0,0,1.62-1.34,1.3,1.3,0,0,0,.07-1,1.53,1.53,0,0,0,.42-.94A7.93,7.93,0,0,0,112.56,76a13.34,13.34,0,0,0,.24-2.19v-.1Z"/></g><path d="M26.92,74.47h-.14c-4.7-.86-9.56-1.74-14.35-3A56.65,56.65,0,0,0,6.88,70,56.19,56.19,0,0,1,.51,68.23.76.76,0,1,1,1,66.8a57.47,57.47,0,0,0,6.21,1.67c1.85.42,3.76.85,5.65,1.48,4.45,1.22,9,2.07,13.48,2.88,1.92-7.77,4.53-15.36,7.06-22.71,1.5-4.36,3.05-8.88,4.47-13.44a.14.14,0,0,1,0-.06c.47-1.18,1-2.35,1.48-3.47A42.41,42.41,0,0,0,42.6,23.9a.44.44,0,0,0-.11-.09.8.8,0,0,1-.26,0A127,127,0,0,0,29.51,19.9,112.17,112.17,0,0,1,14.4,15.12.76.76,0,0,1,15,13.71,110.28,110.28,0,0,0,29.9,18.43,128.47,128.47,0,0,1,42.67,22.3a1.7,1.7,0,0,1,1.46,1.61.66.66,0,0,1,0,.14,43.08,43.08,0,0,1-3.35,9.71c-.48,1.11-1,2.25-1.45,3.4-1.42,4.58-3,9.09-4.47,13.46-2.72,7.88-5.28,15.32-7.19,23.26A.78.78,0,0,1,26.92,74.47ZM43.37,23.91Z"/><path d="M17.27,72l-.18,0a.77.77,0,0,1-.56-.93A356.15,356.15,0,0,1,33.44,20.18a.78.78,0,0,1,1-.4.76.76,0,0,1,.4,1A354.6,354.6,0,0,0,18,71.46.76.76,0,0,1,17.27,72Z"/><path d="M142.15,76.69a.73.73,0,0,1-.35-.09.7.7,0,0,1-.38-.46c-3-10.42-6.24-20.84-9.63-31.86-1.75-5.69-3.56-11.58-5.37-17.54a.75.75,0,0,1,.37-.89,161.87,161.87,0,0,1,24.12-10.62.76.76,0,0,1,1,.47.77.77,0,0,1-.47,1,160.37,160.37,0,0,0-23.35,10.22c1.74,5.75,3.49,11.44,5.19,16.94,3.31,10.76,6.44,20.93,9.4,31.11,7.08-2.54,14.12-5.43,20.93-8.61a.76.76,0,1,1,.65,1.38C157.13,71,149.78,74,142.4,76.64A.74.74,0,0,1,142.15,76.69Z"/><path d="M151.31,72.7a.76.76,0,0,1-.73-.56c-4.45-16.73-9.52-33.52-15.07-49.91a.77.77,0,0,1,.48-1,.76.76,0,0,1,1,.48c5.57,16.42,10.64,33.24,15.1,50a.77.77,0,0,1-.54.94Z"/><path d="M67,50a5.26,5.26,0,0,1-4.72-2.55c-1.64-3.18,1.44-6.75,2.46-7.92,4.18-4.85,8.5-9.86,13.88-13.64,6.06-4.26,12.69-6.19,18.65-5.43A39.55,39.55,0,0,1,106,23c.91.33,1.84.68,2.76,1A58.79,58.79,0,0,0,127,27.15a.75.75,0,0,1,.75.77.74.74,0,0,1-.77.75,60,60,0,0,1-18.63-3.24c-.94-.32-1.88-.67-2.8-1A38.61,38.61,0,0,0,97.08,22c-5.59-.71-11.84,1.12-17.59,5.17-5.22,3.67-9.48,8.61-13.6,13.38-2.3,2.67-3,4.71-2.25,6.24a3.82,3.82,0,0,0,3.62,1.71A12.06,12.06,0,0,0,71.78,47l3.15-1.57c6.4-3.19,12.45-6.2,18.2-10.25A.76.76,0,0,1,94,36.38c-5.83,4.11-11.93,7.15-18.39,10.36l-3.14,1.57A13.33,13.33,0,0,1,67.36,50Z"/><path d="M123.33,77.78a.74.74,0,0,1-.7-.47.75.75,0,0,1,.41-1c5.48-2.26,11-4.61,16.44-7a.76.76,0,0,1,1,.39.77.77,0,0,1-.39,1c-5.44,2.37-11,4.72-16.47,7A.71.71,0,0,1,123.33,77.78Z"/><path d="M121.21,80.84l-.44,0a9.93,9.93,0,0,1-6.83-4.61,31.07,31.07,0,0,1-2.74-5.43c-.24-.58-.48-1.16-.74-1.73a46.15,46.15,0,0,0-8.31-12.58.76.76,0,0,1,1.12-1,47.76,47.76,0,0,1,8.58,13c.26.58.51,1.17.76,1.76a29.28,29.28,0,0,0,2.59,5.16,8.4,8.4,0,0,0,5.73,4,1.35,1.35,0,0,0,.65,0c.19-.12.28-.52.26-1.19a46.74,46.74,0,0,0-28.57-41.6.76.76,0,0,1,.59-1.41,48.26,48.26,0,0,1,29.5,43,2.74,2.74,0,0,1-1,2.52A2.11,2.11,0,0,1,121.21,80.84Z"/><path d="M83.17,89.19a6.27,6.27,0,0,1-3.91-1.26.76.76,0,0,1-.17-1.06.78.78,0,0,1,1.07-.17,5.1,5.1,0,0,0,3.66,1h.11a6.13,6.13,0,0,0,4.23-2,2.9,2.9,0,0,0,.75-2.22s0-.07,0-.11a28.43,28.43,0,0,0-.42-4.53.76.76,0,0,1,1.32-.63,17.78,17.78,0,0,0,3.8,3.46,5.44,5.44,0,0,0,4.51.69c1.79-.66,3.63-3.78,3.22-5.47a.76.76,0,1,1,1.48-.36c.64,2.66-1.85,6.41-4.18,7.26a6.87,6.87,0,0,1-5.81-.81,14.17,14.17,0,0,1-2.52-2,22.55,22.55,0,0,1,.13,2.36,4.36,4.36,0,0,1-1.1,3.35A7.72,7.72,0,0,1,84,89.17h-.11Z"/><path d="M108.23,83a5.06,5.06,0,0,1-1.81-.39c-2.88-1.11-4.4-4.25-5.88-7.29-1-2.1-2.09-4.27-3.53-5.56a.76.76,0,0,1,1-1.14c1.67,1.49,2.8,3.8,3.89,6,1.41,2.89,2.74,5.63,5.06,6.53,1,.39,2.24.87,3.89-1.92a6.13,6.13,0,0,0,.64-2.65,23.29,23.29,0,0,0-1.09-7.19c-.1-.36-.19-.72-.28-1.08a.76.76,0,1,1,1.48-.38l.27,1.08A24,24,0,0,1,113,76.68a7.47,7.47,0,0,1-.85,3.32C110.82,82.28,109.47,83,108.23,83Z"/><path d="M58.71,82.5H58.5a6.24,6.24,0,0,1-6-4.12,6.37,6.37,0,0,1-.14-2.67,7.68,7.68,0,0,1-5.33,1,7.07,7.07,0,0,1-5.66-5.52,2.2,2.2,0,0,1,.5-2,.75.75,0,0,1,1.07,0,.76.76,0,0,1,0,1.08c-.07.07-.12.3,0,.72a5.48,5.48,0,0,0,4.42,4.27A6,6,0,0,0,53,73.07a.78.78,0,0,1,.89-.25c.27-.14.52-.24.69-.31a33,33,0,0,1,9.5-2.17c2.62-.2,4.37.43,5.18,1.88a4,4,0,0,1,.41,2.53,6.51,6.51,0,0,1-1.54,3.44,10.6,10.6,0,0,1-2.83,2.16A13.82,13.82,0,0,1,58.71,82.5Zm-4.54-8A6.44,6.44,0,0,0,54,77.94c.56,1.93,2.73,3,4.58,3a12,12,0,0,0,6-2A9,9,0,0,0,67,77.19a4.94,4.94,0,0,0,1.18-2.63A2.74,2.74,0,0,0,68,73c-.63-1.11-2.38-1.21-3.74-1.11a31.8,31.8,0,0,0-9.07,2.07A3,3,0,0,0,54.17,74.5Z"/><path d="M66.17,87.64a6.47,6.47,0,0,1-3.25-.83,5.78,5.78,0,0,1-2.77-5.4.76.76,0,1,1,1.52.14,4.25,4.25,0,0,0,2,3.94,5.72,5.72,0,0,0,4.81.21,17,17,0,0,0,4.58-2.81c2.08-1.63,4-3.46,4.21-5.76a1.12,1.12,0,0,0,0-.45,1.06,1.06,0,0,0-.42-.37,5.72,5.72,0,0,0-4.19-.47,16.23,16.23,0,0,0-3.91,1.61l-.22.12a.76.76,0,0,1-.7-1.36l.22-.11a17.48,17.48,0,0,1,4.27-1.74,7.22,7.22,0,0,1,5.31.64,2.47,2.47,0,0,1,1,1.08,2.38,2.38,0,0,1,.15,1.17c-.22,2.89-2.44,5-4.79,6.84a18.35,18.35,0,0,1-5,3A8.3,8.3,0,0,1,66.17,87.64Z"/><path d="M75.06,89.81a7.17,7.17,0,0,1-3.15-.73,3.56,3.56,0,0,1-2.22-3.16.78.78,0,0,1,.81-.72.76.76,0,0,1,.71.81c0,.73.72,1.37,1.38,1.7a5.56,5.56,0,0,0,3.38.5,10.11,10.11,0,0,0,4.68-2.62c1.46-1.26,2.09-2.31,2-3.29a2.6,2.6,0,0,0-2.47-2,5.25,5.25,0,0,0-3.5,1.41.76.76,0,0,1-.94-1.2,6.88,6.88,0,0,1,4.52-1.73,4.13,4.13,0,0,1,3.9,3.32c.25,2-1.3,3.61-2.48,4.63a11.63,11.63,0,0,1-5.42,3A6.6,6.6,0,0,1,75.06,89.81Z"/><path d="M53.73,73.8a.76.76,0,0,1-.75-.63c-.27-1.56-2-2.5-3-2.92-2.91-1.22-5.44-1.18-7.52.12a.75.75,0,0,1-1-.2,26.15,26.15,0,0,0-10.79-8.88.76.76,0,1,1,.6-1.39,27.33,27.33,0,0,1,11,8.83c2.39-1.24,5.18-1.2,8.3.12,2.22.93,3.6,2.37,3.89,4.06a.77.77,0,0,1-.62.88Z"/><path d="M42.72,27.41a.76.76,0,0,1-.17-1.5,192.62,192.62,0,0,0,22.64-7l.57-.21a32.47,32.47,0,0,1,7.69-2.13c6.17-.69,11.86,2,16.88,4.31a.76.76,0,0,1-.64,1.38C84.85,20,79.36,17.47,73.61,18.1a32.19,32.19,0,0,0-7.32,2l-.58.21a195.58,195.58,0,0,1-22.81,7Z"/><path d="M57.82,14.21a.77.77,0,0,1-.41-1.41A40,40,0,0,1,80.82,6.73a.75.75,0,0,1,.71.8.75.75,0,0,1-.8.72,38.31,38.31,0,0,0-22.5,5.84A.78.78,0,0,1,57.82,14.21Z"/><path d="M53.05,6.77a.78.78,0,0,1-.64-.35.76.76,0,0,1,.22-1A36.93,36.93,0,0,1,66.23,0a.77.77,0,0,1,.88.62.77.77,0,0,1-.62.88,35.51,35.51,0,0,0-13,5.13A.71.71,0,0,1,53.05,6.77Z"/><path d="M101.77,90.35a.76.76,0,0,1-.76-.74.78.78,0,0,1,.74-.79,20.23,20.23,0,0,0,12.19-4.58.76.76,0,0,1,1,1.18,21.84,21.84,0,0,1-13.11,4.93Z"/><path d="M159.43,66.37l-.09,0-8.26-3.11a.25.25,0,0,1-.15-.32.25.25,0,0,1,.33-.15l8.26,3.11a.25.25,0,0,1,.15.32A.25.25,0,0,1,159.43,66.37Z"/><path d="M162.22,63.27h-.08a126.35,126.35,0,0,1-13.39-5.44.25.25,0,0,1-.12-.34.26.26,0,0,1,.34-.12,127.55,127.55,0,0,0,13.34,5.42.24.24,0,0,1,.15.32A.25.25,0,0,1,162.22,63.27Z"/><path d="M162.93,58.4h-.08c-5.06-1.66-10.1-3.54-15-5.61a.25.25,0,0,1-.14-.33.27.27,0,0,1,.34-.14c4.88,2.06,9.91,3.95,14.95,5.59a.26.26,0,0,1,.17.32A.26.26,0,0,1,162.93,58.4Z"/><path d="M162.93,53.72h-.09C157,51.5,152.39,49.59,146.11,47a.26.26,0,0,1-.13-.34.24.24,0,0,1,.33-.13c6.27,2.64,10.82,4.54,16.71,6.75a.25.25,0,0,1,.14.33A.24.24,0,0,1,162.93,53.72Z"/><path d="M161.46,48.44l-.09,0L144.5,41.54a.25.25,0,0,1,.19-.47L161.56,48a.25.25,0,0,1,.14.33A.26.26,0,0,1,161.46,48.44Z"/><path d="M160.92,43.39l-.1,0-18.33-8.12a.27.27,0,0,1-.13-.33.26.26,0,0,1,.34-.13L161,42.9a.26.26,0,0,1,.13.34A.26.26,0,0,1,160.92,43.39Z"/><path d="M159.13,37l-.1,0-18.49-8.31a.26.26,0,0,1-.13-.34.26.26,0,0,1,.34-.13l18.49,8.31a.26.26,0,0,1,.12.34A.25.25,0,0,1,159.13,37Z"/><path d="M155,28.73l-.09,0c-4.6-1.77-9.28-3.47-13.93-5.06a.24.24,0,0,1-.15-.32.25.25,0,0,1,.32-.16c4.65,1.59,9.34,3.3,13.94,5.07a.25.25,0,0,1,.14.33A.24.24,0,0,1,155,28.73Z"/><path d="M154.61,22.89l-.1,0-6.6-2.76a.24.24,0,0,1-.13-.33.25.25,0,0,1,.33-.14l6.6,2.76a.24.24,0,0,1,.13.33A.25.25,0,0,1,154.61,22.89Z"/><path class="cls-4" d="M14.73,14.58c6.52,2.19,13.11,4.18,19.4,6.06-1,4.35-3.68,8.11-5.46,12.21a64.14,64.14,0,0,0-2.33,6.71q-4.86,15.94-9.31,32A101.78,101.78,0,0,0,.47,67.44C6.21,49.58,11.39,32.43,14.73,14.58Z"/><g class="cls-3"><path d="M137.89,67.42a30.36,30.36,0,0,0-3,1.08,2.89,2.89,0,0,0-.66,0,7.29,7.29,0,0,0-1.43.48c-.51.17-1,.34-1.5.55a10.39,10.39,0,0,1-1,.36l-.18.06-.44.14h-.27l-.3-.07h0a7.1,7.1,0,0,1-.59-.64c-.25-.32,0,0,.12.16a7.91,7.91,0,0,0-.52-.63,1.22,1.22,0,0,0-.14-.16c-.17-.24-.32-.49-.48-.73a33.12,33.12,0,0,1-1.77-3c-1.14-2.22-2.19-4.48-3.41-6.66a41.91,41.91,0,0,0-2.19-4.4,48.25,48.25,0,0,0-8.81-10.31,37.56,37.56,0,0,0-8.11-6.19,15.89,15.89,0,0,0-6.45-2.37,1.1,1.1,0,1,0-.34,2.15A11.66,11.66,0,0,1,101.32,39a1.18,1.18,0,0,0,.27,1.29c1.63,1.41,3.5,2.49,5.19,3.82-.08-.05.86.74,1,.94s.39.39.58.59a.75.75,0,0,0-.24.57c.11.71.9,1.53,1.25,2.19,1.86,2.83,4,5.47,5.63,8.48a39.9,39.9,0,0,1,4.31,13.75c.37,1.74.57,4.91,0,5.81l-.15.16-.12.07-.21.08-.11,0h-.48l-.17,0c-.63-.16-.29,0-1.24-.53a1.27,1.27,0,0,0-1.28,2.2c3.6,2.6,6.12,1.67,6.84-1.84a18.62,18.62,0,0,0-.26-6.4c.11.32.22.64.32,1,.21,1.25.38,2.44.55,3.49l-.08.1a1.36,1.36,0,0,0,.47,1.83,1.19,1.19,0,0,0,1.27.47,1.06,1.06,0,0,0,.74-.68A74.47,74.47,0,0,0,136.91,71a8.42,8.42,0,0,1,1.57-.88,2.16,2.16,0,0,0,1-.7,1.9,1.9,0,0,0,.48-.46C140.64,67.53,139,66.83,137.89,67.42Z"/></g><g class="cls-3"><path d="M163.07,63.36a1.45,1.45,0,0,0-.59.13c-.92.27-1.74.86-2.64,1.19-1.59.77-2.21.91-4.35,1.94-3.68,1.95-9.79,3.87-13.07,5.24a1.72,1.72,0,0,0,.91,3.32c3.45-1.12,6.7-2.73,10-4.15,1.75-.81,5.09-2,7.85-3.37,1.29-.67,2.9-1.47,3.06-1.87A1.51,1.51,0,0,0,163.07,63.36Z"/></g><g class="cls-3"><polygon points="31.64 60.79 31.64 60.79 31.64 60.79 31.64 60.79"/></g><g class="cls-3"><path d="M41.26,27.93c-1.4,5-3.86,8.78-5.67,14.35A72.49,72.49,0,0,0,33,52.22c-.4,1.49-.7,3-1,4.51a11.66,11.66,0,0,0-.38,4.06,2.3,2.3,0,0,0,3,1.53c.75.79,1.55,1.54,2.35,2.28v-.1A44.21,44.21,0,0,1,37,60a11.06,11.06,0,0,1-.5-2.59c.31-1.64.7-3.27.9-4.94a88.83,88.83,0,0,1,4-15.69c.52-1.53.92-3.1,1.59-4.57.47-1.33,1.25-2.69,1.25-4.12A1.56,1.56,0,0,0,41.26,27.93Z"/></g><g class="cls-3"><path d="M42.84,68.9a.74.74,0,0,1-.74.56,1.17,1.17,0,0,0,.88.12,1.08,1.08,0,0,0,.79-1.11Z"/></g><g class="cls-3"><path d="M31.64,60.79c0-.2-.06-.4-.08-.6A2.29,2.29,0,0,0,31.64,60.79Z"/></g><g class="cls-3"><path d="M52.1,73c-.59.4-1.39.27-2.93.25a16.06,16.06,0,0,1-3.48-.39c-.75-.17-1.45-.75-2.24-.65a1.38,1.38,0,0,0-.18,2.7,20.32,20.32,0,0,0,3.16,1,6,6,0,0,0,2.78.19,11.86,11.86,0,0,0,3.28-1.29c.42-.27,1-.48,1.14-1A.9.9,0,0,0,52.1,73Z"/></g><g class="cls-3"><path d="M67.71,75c-.51.17-.62.45-1.42.88a12.23,12.23,0,0,1-4.43,1.45,14.6,14.6,0,0,1-4.12.56,13.42,13.42,0,0,1-2.1-.09,3.63,3.63,0,0,0-1.38-.16A1.73,1.73,0,0,0,54,81c4.55,1.32,8.3,0,11.52-2a15.37,15.37,0,0,0,2.77-2c.45-.5.57-.41.67-1.11A1,1,0,0,0,67.71,75Z"/></g><g class="cls-3"><path d="M86.83,84.39c-1,.13-.72.25-1.23.4a9.68,9.68,0,0,1-1.89.64c-1,.17-.95.16-1.2.19a1.09,1.09,0,0,0,.2-.87,1.24,1.24,0,0,0-1.24-1.1c-.75,0-1.32.66-2,.93a21.68,21.68,0,0,1-3,1.19,12.19,12.19,0,0,1-3.4.5c-.65,0-1.29-.45-1.89-.52A21,21,0,0,0,74.56,84a17.79,17.79,0,0,0,3.38-2.74,1.07,1.07,0,0,0,.36-.79,1,1,0,0,0-.51-.89,1,1,0,0,0-1.26.16c.07,0,.24-.19.14-.12-.51.32-1,.63-1.54.93A26.33,26.33,0,0,1,65.68,84a8.51,8.51,0,0,1-1.82.08H63.7a6.59,6.59,0,0,0-1.38-.21,1,1,0,0,0-.13,2,12.08,12.08,0,0,0,3,.76,14,14,0,0,0,3.23-.16,8.8,8.8,0,0,0,1.69-.3,1.31,1.31,0,0,0,.27,2A9.63,9.63,0,0,0,78.85,88a9.89,9.89,0,0,0,1.46-.72,1.61,1.61,0,0,0,1.6,1.64c1.73-.22,3.59-.31,5-1.36.44-.33,1-.61,1.2-1.16A1.45,1.45,0,0,0,86.83,84.39Z"/></g><g class="cls-3"><path d="M100.79,78c-1.06.54-.8.64-1.49,1.07a4.59,4.59,0,0,1-2.36,1,4.45,4.45,0,0,1-1.53.18l-.37,0-.42-.09c-.89-.14-1.82-.8-2.68-.28a1.54,1.54,0,0,0,.36,2.78,10.38,10.38,0,0,0,3.57.6,8.65,8.65,0,0,0,4.1-1.44,19.58,19.58,0,0,0,1.67-1.34,1.62,1.62,0,0,0,.76-1.25A1.29,1.29,0,0,0,100.79,78Z"/></g><g class="cls-3"><path d="M112.8,73.75a1.47,1.47,0,0,0-1.06-1.43h-.1a14.31,14.31,0,0,0-.27-3.58,26,26,0,0,0-2.26-5.09,18.6,18.6,0,0,0-3-4.89.89.89,0,0,0-1.43.7c0,.61.6,1,.88,1.55a19.26,19.26,0,0,1,2.83,6.69,15.09,15.09,0,0,1,.8,7.19V75c0,.13-.05.27-.08.4a1.83,1.83,0,0,1-.08.28c-.15.25-.31.49-.47.72s-.63.75-.87,1l-.16.09a4.66,4.66,0,0,1-2.07-.38c-.36-.14-.43-.18,0,0a13,13,0,0,0-1.86-.77,1.41,1.41,0,0,0-.9,2.6c.46.23,1,.46,1.42.66a1.69,1.69,0,0,0,.83,1.19l.34.16a1.5,1.5,0,0,0,1.15,1.38,4.14,4.14,0,0,0,1.94.2,4.64,4.64,0,0,0,.75-.27,2.88,2.88,0,0,0,1.62-1.34,1.3,1.3,0,0,0,.07-1,1.53,1.53,0,0,0,.42-.94A7.93,7.93,0,0,0,112.56,76a13.34,13.34,0,0,0,.24-2.19v-.1Z"/></g><path d="M26.92,74.47h-.14c-4.7-.86-9.56-1.74-14.35-3A56.65,56.65,0,0,0,6.88,70,56.19,56.19,0,0,1,.51,68.23.76.76,0,1,1,1,66.8a57.47,57.47,0,0,0,6.21,1.67c1.85.42,3.76.85,5.65,1.48,4.45,1.22,9,2.07,13.48,2.88,1.92-7.77,4.53-15.36,7.06-22.71,1.5-4.36,3.05-8.88,4.47-13.44a.14.14,0,0,1,0-.06c.47-1.18,1-2.35,1.48-3.47A42.41,42.41,0,0,0,42.6,23.9a.44.44,0,0,0-.11-.09.8.8,0,0,1-.26,0A127,127,0,0,0,29.51,19.9,112.17,112.17,0,0,1,14.4,15.12.76.76,0,0,1,15,13.71,110.28,110.28,0,0,0,29.9,18.43,128.47,128.47,0,0,1,42.67,22.3a1.7,1.7,0,0,1,1.46,1.61.66.66,0,0,1,0,.14,43.08,43.08,0,0,1-3.35,9.71c-.48,1.11-1,2.25-1.45,3.4-1.42,4.58-3,9.09-4.47,13.46-2.72,7.88-5.28,15.32-7.19,23.26A.78.78,0,0,1,26.92,74.47ZM43.37,23.91Z"/><path d="M17.27,72l-.18,0a.77.77,0,0,1-.56-.93A356.15,356.15,0,0,1,33.44,20.18a.78.78,0,0,1,1-.4.76.76,0,0,1,.4,1A354.6,354.6,0,0,0,18,71.46.76.76,0,0,1,17.27,72Z"/><path d="M142.15,76.69a.73.73,0,0,1-.35-.09.7.7,0,0,1-.38-.46c-3-10.42-6.24-20.84-9.63-31.86-1.75-5.69-3.56-11.58-5.37-17.54a.75.75,0,0,1,.37-.89,161.87,161.87,0,0,1,24.12-10.62.76.76,0,0,1,1,.47.77.77,0,0,1-.47,1,160.37,160.37,0,0,0-23.35,10.22c1.74,5.75,3.49,11.44,5.19,16.94,3.31,10.76,6.44,20.93,9.4,31.11,7.08-2.54,14.12-5.43,20.93-8.61a.76.76,0,1,1,.65,1.38C157.13,71,149.78,74,142.4,76.64A.74.74,0,0,1,142.15,76.69Z"/><path d="M151.31,72.7a.76.76,0,0,1-.73-.56c-4.45-16.73-9.52-33.52-15.07-49.91a.77.77,0,0,1,.48-1,.76.76,0,0,1,1,.48c5.57,16.42,10.64,33.24,15.1,50a.77.77,0,0,1-.54.94Z"/><path d="M67,50a5.26,5.26,0,0,1-4.72-2.55c-1.64-3.18,1.44-6.75,2.46-7.92,4.18-4.85,8.5-9.86,13.88-13.64,6.06-4.26,12.69-6.19,18.65-5.43A39.55,39.55,0,0,1,106,23c.91.33,1.84.68,2.76,1A58.79,58.79,0,0,0,127,27.15a.75.75,0,0,1,.75.77.74.74,0,0,1-.77.75,60,60,0,0,1-18.63-3.24c-.94-.32-1.88-.67-2.8-1A38.61,38.61,0,0,0,97.08,22c-5.59-.71-11.84,1.12-17.59,5.17-5.22,3.67-9.48,8.61-13.6,13.38-2.3,2.67-3,4.71-2.25,6.24a3.82,3.82,0,0,0,3.62,1.71A12.06,12.06,0,0,0,71.78,47l3.15-1.57c6.4-3.19,12.45-6.2,18.2-10.25A.76.76,0,0,1,94,36.38c-5.83,4.11-11.93,7.15-18.39,10.36l-3.14,1.57A13.33,13.33,0,0,1,67.36,50Z"/><path d="M123.33,77.78a.74.74,0,0,1-.7-.47.75.75,0,0,1,.41-1c5.48-2.26,11-4.61,16.44-7a.76.76,0,0,1,1,.39.77.77,0,0,1-.39,1c-5.44,2.37-11,4.72-16.47,7A.71.71,0,0,1,123.33,77.78Z"/><path d="M121.21,80.84l-.44,0a9.93,9.93,0,0,1-6.83-4.61,31.07,31.07,0,0,1-2.74-5.43c-.24-.58-.48-1.16-.74-1.73a46.15,46.15,0,0,0-8.31-12.58.76.76,0,0,1,1.12-1,47.76,47.76,0,0,1,8.58,13c.26.58.51,1.17.76,1.76a29.28,29.28,0,0,0,2.59,5.16,8.4,8.4,0,0,0,5.73,4,1.35,1.35,0,0,0,.65,0c.19-.12.28-.52.26-1.19a46.74,46.74,0,0,0-28.57-41.6.76.76,0,0,1,.59-1.41,48.26,48.26,0,0,1,29.5,43,2.74,2.74,0,0,1-1,2.52A2.11,2.11,0,0,1,121.21,80.84Z"/><path d="M83.17,89.19a6.27,6.27,0,0,1-3.91-1.26.76.76,0,0,1-.17-1.06.78.78,0,0,1,1.07-.17,5.1,5.1,0,0,0,3.66,1h.11a6.13,6.13,0,0,0,4.23-2,2.9,2.9,0,0,0,.75-2.22s0-.07,0-.11a28.43,28.43,0,0,0-.42-4.53.76.76,0,0,1,1.32-.63,17.78,17.78,0,0,0,3.8,3.46,5.44,5.44,0,0,0,4.51.69c1.79-.66,3.63-3.78,3.22-5.47a.76.76,0,1,1,1.48-.36c.64,2.66-1.85,6.41-4.18,7.26a6.87,6.87,0,0,1-5.81-.81,14.17,14.17,0,0,1-2.52-2,22.55,22.55,0,0,1,.13,2.36,4.36,4.36,0,0,1-1.1,3.35A7.72,7.72,0,0,1,84,89.17h-.11Z"/><path d="M108.23,83a5.06,5.06,0,0,1-1.81-.39c-2.88-1.11-4.4-4.25-5.88-7.29-1-2.1-2.09-4.27-3.53-5.56a.76.76,0,0,1,1-1.14c1.67,1.49,2.8,3.8,3.89,6,1.41,2.89,2.74,5.63,5.06,6.53,1,.39,2.24.87,3.89-1.92a6.13,6.13,0,0,0,.64-2.65,23.29,23.29,0,0,0-1.09-7.19c-.1-.36-.19-.72-.28-1.08a.76.76,0,1,1,1.48-.38l.27,1.08A24,24,0,0,1,113,76.68a7.47,7.47,0,0,1-.85,3.32C110.82,82.28,109.47,83,108.23,83Z"/><path d="M58.71,82.5H58.5a6.24,6.24,0,0,1-6-4.12,6.37,6.37,0,0,1-.14-2.67,7.68,7.68,0,0,1-5.33,1,7.07,7.07,0,0,1-5.66-5.52,2.2,2.2,0,0,1,.5-2,.75.75,0,0,1,1.07,0,.76.76,0,0,1,0,1.08c-.07.07-.12.3,0,.72a5.48,5.48,0,0,0,4.42,4.27A6,6,0,0,0,53,73.07a.78.78,0,0,1,.89-.25c.27-.14.52-.24.69-.31a33,33,0,0,1,9.5-2.17c2.62-.2,4.37.43,5.18,1.88a4,4,0,0,1,.41,2.53,6.51,6.51,0,0,1-1.54,3.44,10.6,10.6,0,0,1-2.83,2.16A13.82,13.82,0,0,1,58.71,82.5Zm-4.54-8A6.44,6.44,0,0,0,54,77.94c.56,1.93,2.73,3,4.58,3a12,12,0,0,0,6-2A9,9,0,0,0,67,77.19a4.94,4.94,0,0,0,1.18-2.63A2.74,2.74,0,0,0,68,73c-.63-1.11-2.38-1.21-3.74-1.11a31.8,31.8,0,0,0-9.07,2.07A3,3,0,0,0,54.17,74.5Z"/><path d="M66.17,87.64a6.47,6.47,0,0,1-3.25-.83,5.78,5.78,0,0,1-2.77-5.4.76.76,0,1,1,1.52.14,4.25,4.25,0,0,0,2,3.94,5.72,5.72,0,0,0,4.81.21,17,17,0,0,0,4.58-2.81c2.08-1.63,4-3.46,4.21-5.76a1.12,1.12,0,0,0,0-.45,1.06,1.06,0,0,0-.42-.37,5.72,5.72,0,0,0-4.19-.47,16.23,16.23,0,0,0-3.91,1.61l-.22.12a.76.76,0,0,1-.7-1.36l.22-.11a17.48,17.48,0,0,1,4.27-1.74,7.22,7.22,0,0,1,5.31.64,2.47,2.47,0,0,1,1,1.08,2.38,2.38,0,0,1,.15,1.17c-.22,2.89-2.44,5-4.79,6.84a18.35,18.35,0,0,1-5,3A8.3,8.3,0,0,1,66.17,87.64Z"/><path d="M75.06,89.81a7.17,7.17,0,0,1-3.15-.73,3.56,3.56,0,0,1-2.22-3.16.78.78,0,0,1,.81-.72.76.76,0,0,1,.71.81c0,.73.72,1.37,1.38,1.7a5.56,5.56,0,0,0,3.38.5,10.11,10.11,0,0,0,4.68-2.62c1.46-1.26,2.09-2.31,2-3.29a2.6,2.6,0,0,0-2.47-2,5.25,5.25,0,0,0-3.5,1.41.76.76,0,0,1-.94-1.2,6.88,6.88,0,0,1,4.52-1.73,4.13,4.13,0,0,1,3.9,3.32c.25,2-1.3,3.61-2.48,4.63a11.63,11.63,0,0,1-5.42,3A6.6,6.6,0,0,1,75.06,89.81Z"/><path d="M53.73,73.8a.76.76,0,0,1-.75-.63c-.27-1.56-2-2.5-3-2.92-2.91-1.22-5.44-1.18-7.52.12a.75.75,0,0,1-1-.2,26.15,26.15,0,0,0-10.79-8.88.76.76,0,1,1,.6-1.39,27.33,27.33,0,0,1,11,8.83c2.39-1.24,5.18-1.2,8.3.12,2.22.93,3.6,2.37,3.89,4.06a.77.77,0,0,1-.62.88Z"/><path d="M42.72,27.41a.76.76,0,0,1-.17-1.5,192.62,192.62,0,0,0,22.64-7l.57-.21a32.47,32.47,0,0,1,7.69-2.13c6.17-.69,11.86,2,16.88,4.31a.76.76,0,0,1-.64,1.38C84.85,20,79.36,17.47,73.61,18.1a32.19,32.19,0,0,0-7.32,2l-.58.21a195.58,195.58,0,0,1-22.81,7Z"/><path d="M57.82,14.21a.77.77,0,0,1-.41-1.41A40,40,0,0,1,80.82,6.73a.75.75,0,0,1,.71.8.75.75,0,0,1-.8.72,38.31,38.31,0,0,0-22.5,5.84A.78.78,0,0,1,57.82,14.21Z"/><path d="M53.05,6.77a.78.78,0,0,1-.64-.35.76.76,0,0,1,.22-1A36.93,36.93,0,0,1,66.23,0a.77.77,0,0,1,.88.62.77.77,0,0,1-.62.88,35.51,35.51,0,0,0-13,5.13A.71.71,0,0,1,53.05,6.77Z"/><path d="M101.77,90.35a.76.76,0,0,1-.76-.74.78.78,0,0,1,.74-.79,20.23,20.23,0,0,0,12.19-4.58.76.76,0,0,1,1,1.18,21.84,21.84,0,0,1-13.11,4.93Z"/></g></g></svg>