<svg xmlns="http://www.w3.org/2000/svg" viewBox="0 0 1097.89 1151"><defs><style>.cls-1{fill:#3fa9f5;}.cls-2{fill:#4169e1;}.cls-3{fill:#1a1a1a;}</style></defs><g id="Layer_2" data-name="Layer 2"><g id="Layer_1-2" data-name="Layer 1"><rect class="cls-1" x="434.29" width="205.87" height="1151" transform="translate(1074.45 1151) rotate(-180)"/><path class="cls-2" d="M254.08,350.28q11,4.1,22,8.33a352.49,352.49,0,0,0-73.66,216.16c0,195.53,158.51,354,354,354,.63,0,1.25,0,1.88,0v22.54l-1.88,0c-208,0-376.56-168.59-376.56-376.56A374.88,374.88,0,0,1,254.08,350.28Z"/><path class="cls-2" d="M556.42,198.22l1.88,0v22.52l-1.88,0c-114.14,0-215.64,54-280.38,137.87q-10.95-4.22-22-8.33C322.71,258,432.58,198.22,556.42,198.22Z"/><path class="cls-2" d="M105.86,574.74A210.43,210.43,0,0,0,0,392.05L59.78,288q98.54,26.47,194.3,62.24a374.88,374.88,0,0,0-74.22,224.49c0,208,168.59,376.56,376.56,376.56l1.88,0V1151H435.72a210.86,210.86,0,0,0-315-183.37L0,757.58A210.65,210.65,0,0,0,105.86,574.74Z"/><path class="cls-2" d="M120.67,182.09a209.84,209.84,0,0,0,104.5,28.09c116.29,0,210.55-95.55,210.55-210.18H558.3V198.24l-1.88,0c-123.84,0-233.71,59.78-302.34,152.06Q158.44,314.63,59.78,288Z"/><path class="cls-2" d="M276,358.61q28.71,11.06,57.11,22.91a294.12,294.12,0,0,0-72,193.25c0,163.08,132.2,295.29,295.29,295.29.63,0,1.25,0,1.88,0v58.75c-.63,0-1.25,0-1.88,0-195.53,0-354-158.51-354-354A352.49,352.49,0,0,1,276,358.61Z"/><path class="cls-2" d="M556.42,220.74l1.88,0v58.75l-1.88,0a294.59,294.59,0,0,0-223.27,102Q304.76,369.67,276,358.61C340.78,274.76,442.28,220.74,556.42,220.74Z"/><path class="cls-3" d="M843.81,350.28q-11,4.1-22,8.33a352.49,352.49,0,0,1,73.66,216.16c0,195.53-158.51,354-354,354-.64,0-1.26,0-1.89,0v22.54l1.89,0c208,0,376.55-168.59,376.55-376.56A374.88,374.88,0,0,0,843.81,350.28Z"/><path class="cls-3" d="M541.48,198.22l-1.89,0v22.52l1.89,0c114.13,0,215.63,54,280.37,137.87q11-4.22,22-8.33C775.18,258,665.31,198.22,541.48,198.22Z"/><path class="cls-3" d="M992,574.74a210.45,210.45,0,0,1,105.86-182.69l-59.78-104q-98.53,26.47-194.3,62.24A374.88,374.88,0,0,1,918,574.77c0,208-168.59,376.56-376.55,376.56l-1.89,0V1151H662.17A210.86,210.86,0,0,1,977.22,967.63l120.67-210A210.67,210.67,0,0,1,992,574.74Z"/><path class="cls-3" d="M977.22,182.09a209.84,209.84,0,0,1-104.5,28.09C756.44,210.18,662.17,114.63,662.17,0H539.59V198.24l1.89,0c123.83,0,233.7,59.78,302.33,152.06q95.66-35.65,194.3-62.24Z"/><path class="cls-3" d="M821.85,358.61q-28.71,11.06-57.1,22.91a294.17,294.17,0,0,1,72,193.25c0,163.08-132.2,295.29-295.28,295.29-.64,0-1.26,0-1.89,0v58.75c.63,0,1.25,0,1.89,0,195.52,0,354-158.51,354-354A352.49,352.49,0,0,0,821.85,358.61Z"/><path class="cls-3" d="M541.48,220.74l-1.89,0v58.75l1.89,0a294.61,294.61,0,0,1,223.27,102q28.38-11.85,57.1-22.91C757.11,274.76,655.61,220.74,541.48,220.74Z"/><rect class="cls-3" x="436.65" width="205.87" height="1151"/></g></g></svg>